<svg viewBox="0 0 997.53 264.77" xmlns="http://www.w3.org/2000/svg"><g fill="#fff"><path d="m952 40.77c4.29 1.74 6.22 4.62 5.76 8-.32 2.43-.33 4.9-.49 7.55a1.18 1.18 0 0 1 -.68-.07 6.5 6.5 0 0 1 -3.91-6.93c.33-2.57.54-5.11-.66-7.54-.02-.23-.02-.55-.02-1.01z"/><path d="m936.61 56.78c4.16 1.21 7.52-.58 11.09-1.52 3.09-.82 5.78.53 7.88 2.43-3.13 1-6.24 2-9.4 2.82s-7.28-.78-9.57-3.73z"/><path d="m898.49 25.89c-2.44 1.24-5 2.33-7.35 3.77-4 2.43-7.72 1.25-12-.47a8.35 8.35 0 0 1 1.33-.36 15.59 15.59 0 0 0 7.9-2.83c3.3-2.09 7.73-2 10.12-.11z"/><path d="m869.7 26.34c3.65-.13 6.56-1.85 9.45-3.77 3.18-2.13 6.53-1.84 9.71-.39-3.09 1.75-6.06 3.68-9.24 5.16-3.36 1.57-6.68.37-9.92-1z"/><path d="m947.73 51.39c-3.44-.49-6 1.65-8.84 2.74a11.16 11.16 0 0 1 -10.8-2.41c4.31.63 7.67-1.36 11.29-2.52 2.99-.96 5.84.2 8.35 2.19z"/><path d="m896.6 34.51c-1.83-.45-3.67-.87-5.49-1.37a10.26 10.26 0 0 1 -2.84-1.29c4.24.16 7.38-2.34 10.9-3.92 2.83-1.28 5.79-.61 8.3.73-3.41 1.7-6.79 3.39-10.16 5.11-.3.15-.5.52-.74.78z"/><path d="m943.35 62.11a21.2 21.2 0 0 0 10-.38c3.53-.81 6.36.69 9.17 3.35a29.21 29.21 0 0 0 -3.68 0c-1.93.28-3.82.77-5.74 1.09-4.1.73-7.05-1.35-9.75-4.06z"/><path d="m896.57 34.55c3.91.07 7.3-1.48 10.74-3.15 3.13-1.53 6.22-.56 8.9.91-2.52 1.11-5.07 2.1-7.5 3.34-4.32 2.19-8.25 1.2-12.1-1.14z"/><path d="m940.17 45.67c-2.71 1-5.45 1.91-8.11 3-3.95 1.64-7.33.28-10.72-1.63.14-.23.21-.41.26-.41 3.52.15 6.68-1 9.83-2.45 2.77-1.18 7.07-.27 8.74 1.49z"/><path d="m859.69 23.68c4-.12 7-2.32 10.17-4.27 2.38-1.46 6.79-1.05 8.48.35-2.23 1.25-4.65 2.42-6.88 3.9-3.91 2.58-7.78 1.65-11.77.02z"/><path d="m923.91 36.46c-2.63 1.08-5.25 2-7.71 3.22-3.28 1.66-6.92 1.37-11-1.16 2.52-.75 5.46-1.26 8.06-2.48a10.81 10.81 0 0 1 9-.46 13.1 13.1 0 0 1 1.65.88z"/><path d="m972.09 78.34c-3 .32-6 .65-9.08 1-4 .4-6.86-1.49-9.27-4.6a13.47 13.47 0 0 0 2.88.57c2.49-.06 5-.26 7.46-.49a9.27 9.27 0 0 1 8.01 3.52z"/><path d="m970.68 135.12a14.26 14.26 0 0 0 2.08 2.63c1.85 1.49 3.84 2.8 5.78 4.16a8.7 8.7 0 0 1 3.14 8c-3.31-2.72-6.75-5.22-9.78-8.16-1.66-1.65-1.55-4.21-1.22-6.63z"/><path d="m948.17 68.82c3.84 1.19 7.44.06 11.1-.52 2.68-.43 6.51 1.39 8 3.52-4.37.3-8.73.84-13.08.81-2.46-.01-4.19-2.04-6.02-3.81z"/><path d="m986.68 132.65c-1.95-3-5.28-3.56-8.2-4.87-3.12-1.4-5.46-5.08-5.34-8.08a84.76 84.76 0 0 0 7.54 4.17 9.26 9.26 0 0 1 5.32 5.43 19 19 0 0 1 .63 3.38z"/><path d="m970.12 142.55c1.16 3.59 4 5.75 6.44 8.18 1.83 1.78 2.3 6 1.31 7.82-2.06-2.11-4.27-4.23-6.32-6.49-2.55-2.77-2.39-6.06-1.43-9.51z"/><path d="m980.84 95.14c-3-.12-6.14-.18-9.25-.37-3.76-.22-6.12-2.58-8.19-5.42.2-.16.32-.31.37-.29 3.2 1.49 6.6 1.42 10 1.43 2.96 0 6.51 2.61 7.07 4.65z"/><path d="m959.09 81.49c3.69 1.55 7.45.91 11.2.81 2.48-.07 5.84 2.25 7 4.39-3.38 0-6.85.14-10.3 0s-5.87-2.45-7.9-5.2z"/><path d="m963.42 63.13c-2.14-.52-4.35-3.62-3.8-5.9.73-3.06 2.21-6 .59-9.42 3.4 1 5.58 4.5 5 7.41-.21 1.07-.67 2.1-.9 3.17-.31 1.61-.6 3.16-.89 4.74z"/><path d="m944 34.68c3.38.91 5.68 3.74 5.66 6.61 0 1.09-.23 2.18-.3 3.27-.12 1.83-.2 3.66-.3 5.49-2.2-.27-4.76-3.41-4.38-5.93.47-3.12 1.05-6.12-.68-9.44z"/><path d="m955.51 170.58c1 3.33 2.07 6.53 3 9.75.68 2.31-.56 6.25-2.13 7.35-1.07-3-2.42-6-3.19-9.14s.56-5.71 2.32-7.96z"/><path d="m936.14 203.66c-.26-2.6-.35-4.84-.75-7-.71-3.88.64-6.95 3.36-9.58a2.46 2.46 0 0 1 1-.43c-.15 1.85-.44 3.69-.41 5.52s.71 3.68.49 5.44a9.07 9.07 0 0 1 -3.69 6.05z"/><path d="m928.18 207.39c-.27-2.59-.36-4.84-.75-7-.71-3.88.64-7 3.35-9.59a2.68 2.68 0 0 1 1-.42c-.15 1.85-.44 3.69-.42 5.52s.71 3.67.5 5.44a9.12 9.12 0 0 1 -3.68 6.05z"/><path d="m935.56 30.15c4.69 1.46 6.66 4.37 6.19 7.73-.3 2.22-.25 4.49-.36 6.74a5.59 5.59 0 0 1 -4.58-6c.33-2.78.65-5.55-1.25-8.47z"/><path d="m925.12 35.21a5.94 5.94 0 0 1 -5.52-5.7c0-2.64 0-5.25-2.08-7.51 3.57 0 6.65 2.74 6.92 5.77.09 1.09-.06 2.21 0 3.3.18 1.35.45 2.68.68 4.14z"/><path d="m932 41.42c-2.7.89-5.38 1.6-7.92 2.66-3.4 1.42-7 .87-10.9-1.95 2.57-.57 5.53-.87 8.21-1.9a10.85 10.85 0 0 1 9 .19 14.83 14.83 0 0 1 1.61 1z"/><path d="m933.34 40.26a5.94 5.94 0 0 1 -5.1-6.08c.21-2.63.42-5.24-1.53-7.65 3.56.3 6.44 3.22 6.48 6.27 0 1.09-.21 2.19-.18 3.29-.01 1.35.21 2.7.33 4.17z"/><path d="m898 15.64c3.1-.58 7.06 1.39 7.77 3.79.28.94.52 1.89.87 2.8.57 1.49 1.22 2.95 1.84 4.45-1.79.87-5.71-1-6.56-3.46a24.07 24.07 0 0 0 -1.18-3.66 38.18 38.18 0 0 0 -2.74-3.92z"/><path d="m986.05 78.61c2.58 2.89 2.77 6.5.83 9.15q-2.28 3.12-4.56 6.27c-1.59-1.14-2.12-4.9-.57-6.94 1.88-2.47 3.98-4.81 4.3-8.48z"/><path d="m983.16 104.2c-3-.5-6.06-1-9.12-1.56-3.7-.72-5.73-3.36-7.41-6.44.2-.13 4.12 2.53 8.72 2.56a8.43 8.43 0 0 1 5.61 2 6.37 6.37 0 0 1 2.2 3.44z"/><path d="m990.48 88.5c2.18 3.2 1.9 6.8-.37 9.17-1.78 1.87-3.55 3.75-5.33 5.63-1.43-1.33-1.46-5.14.33-7 2.19-2.16 4.58-4.21 5.37-7.8z"/><path d="m973.6 77.34a5.74 5.74 0 0 1 -1.14-7.23c1.54-2.5 3.07-5 3-8.66 1.75 1.63 2.66 3.2 2.7 5a10.2 10.2 0 0 1 -1 4.34c-1.01 2.21-2.32 4.31-3.56 6.55z"/><path d="m908.21 18.12c5.09.58 7.08 2.89 7.5 6.93a49.9 49.9 0 0 0 1.16 5.39c-2 .52-5.36-1.68-5.89-4.22a32.1 32.1 0 0 0 -.69-4 34.11 34.11 0 0 0 -2.08-4.1z"/><path d="m888.29 13.21c4.51-.42 7.89 1.71 8.45 4.4a17.08 17.08 0 0 0 .83 3c.52 1.24 1.24 2.4 1.86 3.57-2.4.69-6-1-6.72-3.37-.84-2.75-1.47-5.56-4.42-7.6z"/><path d="m888.81 20.62a6.1 6.1 0 0 1 -7-3.86c-1.36-3.81-1.36-3.81-4.13-6.5 2.56-1.11 6.72.55 8 3.24.41.88.61 1.85 1 2.74.64 1.45 1.38 2.87 2.13 4.38z"/><path d="m967.81 56c3.33 1.83 4.24 5.5 3.45 7.47-.39 1-.87 1.89-1.21 2.87-.57 1.62-1.08 3.26-1.61 4.9-2-.73-3.46-4.34-2.53-6.79a53.61 53.61 0 0 0 1.85-5.15 13.34 13.34 0 0 0 .05-3.3z"/><path d="m978.84 86.23c-2-1.65-2.66-4.93-1.26-6.89 1.78-2.49 3.73-4.85 3.8-8.25a6.41 6.41 0 0 1 1.62 8.38c-.73 1.12-1.7 2.1-2.4 3.24s-1.14 2.29-1.76 3.52z"/><path d="m879.2 18.37a6.37 6.37 0 0 1 -7.44-4.12 55.44 55.44 0 0 0 -3.31-6c2.53-.78 6.91 1.11 7.64 3.59a14.36 14.36 0 0 0 .91 2.58c.65 1.35 1.43 2.58 2.2 3.95z"/><path d="m983.28 149a5.67 5.67 0 0 1 2.4-5.74c2.79-1.53 5.64-3 8.43-4.43.82 2.35-.86 5.82-3.75 7.11-2.36.98-4.66 1.97-7.08 3.06z"/><path d="m987.72 129.81c-.7-1.9 0-4.9 1.67-6 2.56-1.78 5.16-3.48 7.72-5.2 1.32 2.63-.72 6.5-2.71 7.48-2.26 1.08-4.4 2.42-6.68 3.72z"/><path d="m985.55 123.61c-2.09-2.84-5.45-3.28-8.43-4.44-3.18-1.25-5.71-4.81-5.74-7.81 2.48 1.24 5 2.75 7.74 3.79a9.25 9.25 0 0 1 5.6 5.15 19.48 19.48 0 0 1 .8 3.35z"/><path d="m986.45 120.72c-.79-1.86-.23-4.89 1.36-6.12 2.47-1.9 5-3.73 7.45-5.58 1.45 2.56-.39 6.53-2.32 7.61-2.2 1.23-4.28 2.68-6.49 4.09z"/><path d="m985.11 114.54c-2.41-2.72-5.9-2.87-9.07-3.78-3.39-1-6.31-4.4-6.62-7.48a88.66 88.66 0 0 0 8.3 3.17 9.51 9.51 0 0 1 6.23 4.77 21.05 21.05 0 0 1 1.13 3.36z"/><path d="m985.77 111.49c-1-1.83-.69-5 .83-6.41 2.35-2.17 4.77-4.29 7.13-6.41 1.72 2.49.21 6.74-1.69 8-2.14 1.49-4.14 3.17-6.27 4.82z"/><path d="m983.06 142.49c-1.48-3.37-4.8-4.57-7.56-6.43-3-2-4.72-6.17-4.08-9.23 2.24 1.82 4.48 3.93 7 5.6a9.6 9.6 0 0 1 4.53 6.51 21.33 21.33 0 0 1 .06 3.58z"/><path d="m984.63 139.75c-.39-2.07.87-5 2.76-5.91 2.94-1.37 5.91-2.67 8.84-4 .89 2.92-1.87 6.54-4.09 7.21-2.51.77-4.95 1.77-7.51 2.7z"/><path d="m990.74 148.72c.74 2.64-.83 5.74-3.83 7.07l-6.81 3c-.79-1.3.13-4.48 2.11-5.62 2.79-1.59 5.71-2.99 8.53-4.45z"/><path d="m967.56 149.66c.72 3.71 3.24 6.18 5.41 8.89 1.6 2 1.56 6.24.35 7.93-1.79-2.34-3.72-4.72-5.48-7.21-2.16-3.05-1.65-6.27-.28-9.61z"/><path d="m987.29 158.28c.42 2.71-1.52 5.59-4.66 6.55l-7.12 2.17c-.63-1.39.66-4.44 2.77-5.33 2.97-1.25 6.03-2.28 9.01-3.39z"/><path d="m930.45 207c1.55-2.06 5-3.15 7-1.85a14.76 14.76 0 0 0 8 2.81c-1.28 2.31-4.77 3.42-7.45 2.41-1.14-.43-2.18-1.11-3.29-1.61-1.33-.58-2.71-1.11-4.26-1.76z"/><path d="m953.36 204.43c-1.17 2-4.92 3.5-7.33 2.57s-4.91-2-7.34-3a5.44 5.44 0 0 1 5.37-2.39c3.14.85 6.24 1.88 9.3 2.82z"/><path d="m972.84 185.29c-1.53 2.38-3.55 4.06-6.52 3.86-2.77-.18-5.52-.66-8.28-1 .21-1.57 2.72-3.66 4.78-3.59 3.3.09 6.58.44 10.02.73z"/><path d="m960.26 164.64c1.41 3.26 2.81 6.4 4.12 9.57 1 2.27.11 6.41-1.36 7.7a97.3 97.3 0 0 1 -4.23-8.94c-1.08-2.97-.07-5.86 1.47-8.33z"/><path d="m979.45 177.7c-1.29 2.59-3.16 4.51-6.2 4.63-2.84.12-5.68-.07-8.53-.13 0-1.62 2.37-4 4.48-4.17 3.35-.25 6.73-.23 10.25-.33z"/><path d="m964.08 157.88c1.72 3.11 3.43 6.09 5.06 9.12 1.17 2.16.75 6.36-.59 7.79a95.54 95.54 0 0 1 -5.1-8.47c-1.37-2.86-.66-5.82.63-8.44z"/><path d="m984.48 169c-1 2.7-2.69 4.8-5.71 5.23-2.8.4-5.66.5-8.49.73-.11-1.61 2-4.23 4-4.6 3.35-.64 6.72-.96 10.2-1.36z"/><path d="m950.58 176.8c.69 3.53 1.4 6.93 2 10.35.45 2.44-1.26 6.35-3 7.31a98.21 98.21 0 0 1 -2.26-9.74c-.4-3.18 1.21-5.81 3.26-7.92z"/><path d="m966.75 193.82c-1.83 2.28-4.09 3.78-7.13 3.25-2.82-.49-5.59-1.29-8.39-1.95.39-1.59 3.2-3.46 5.31-3.17 3.37.47 6.71 1.22 10.21 1.87z"/><path d="m944.8 182.14c.69 3.52 1.4 6.92 2 10.34.45 2.45-1.27 6.36-3 7.32a97.75 97.75 0 0 1 -2.26-9.75c-.41-3.18 1.2-5.8 3.26-7.91z"/><path d="m961 199.16c-1.83 2.28-4.09 3.78-7.13 3.25-2.82-.49-5.6-1.29-8.39-2 .39-1.59 3.19-3.46 5.31-3.16 3.34.51 6.67 1.25 10.21 1.91z"/><path d="m851.7 21.48a18.81 18.81 0 0 0 8.3-3.77c2.93-2.12 6.12-1.91 9.08-.79-2.35 1.4-4.75 2.75-7.06 4.23-3.38 2.18-6.81 1.65-10.32.33z"/><path d="m857.74 7c5.13-.73 8 .64 9.13 4.19a28.13 28.13 0 0 0 2.21 4.2c-1.92 1-5.47-.25-6.45-2.66s-1.83-4.55-4.89-5.73z"/><path d="m858.45 15.59c-1.5 1.06-3 2-4.29 3.08-2.75 2.22-5.17 2.47-8 .94 1.91-1.25 4-2.62 6.06-3.95s4.26-.96 6.23-.07z"/><path d="m850.72 6.09c3.26-.36 5 .7 6.12 3.52.55 1.45 1.15 2.89 1.74 4.33a3.7 3.7 0 0 1 -4.65-2.43 20.1 20.1 0 0 0 -1.18-2.87 22.36 22.36 0 0 0 -2.03-2.55z"/><path d="m852 13.66c-1.34.94-2.59 1.76-3.77 2.66-2.44 1.86-4.56 2.1-7 1 1.53-.92 3.33-1.91 5-3.07a5.63 5.63 0 0 1 5.77-.59z"/><path d="m851.65 12.55a3.59 3.59 0 0 1 -4.26-2.34c-.66-1.39-1.56-2.67-2.3-3.91 2.36-.58 4 .23 5 2.7.46 1.16 1 2.3 1.56 3.55z"/><path d="m845.67 12.76c-2.46 1.61-4.07 4.73-7.95 2.67 3.08-.09 4.28-4.08 7.95-2.67z"/><path d="m840.86 7c3.76-.52 3.32 2.94 4.83 5-3.76.16-2.9-3.77-4.83-5z"/><path d="m713.23 179.63 33.1 13.46-13.33 11.32-1.65 1.4 1.25 1.77a10.26 10.26 0 0 0 5.18 3.82c1.91.62 5.07 1.6 9.23 2.72a285.06 285.06 0 0 0 72.33 9.55c32.66 0 63-6 90.11-17.86l4-1.76-3.69-2.39-13.22-8.59 31.71-13.35-8.25 25.45-.65 2 1.88.89 23.77 11.27-36.72 13.2-1.57.56v13c-7.41 3-43.17 16.3-90.1 16.3a232.41 232.41 0 0 1 -79.47-13.68l-.16-13v-1.65l-1.56-.55-35.57-12.51 23.68-12.62 1.94-1-.89-2-11.35-25.69m-4.53-4.41 13.72 31.06-28.42 15.1 40.61 14.28.19 14.66a234.48 234.48 0 0 0 81.81 14.39c53.69 0 92.47-17.09 92.47-17.09v-12.92l42.08-15.13-28.91-13.72 9.92-30.38-40.61 17.09 17 11c-30.68 13.4-61.89 17.66-89.16 17.66a281.05 281.05 0 0 1 -71.71-9.46c-4.06-1.1-7.15-2.05-9.12-2.69a7.83 7.83 0 0 1 -4-2.93l16.29-13.85-42.16-17.13z"/><path d="m747.46 198.07-2 11.41-5.77-1.74a8 8 0 0 1 -2.7-1.42l10.43-8.25m3.38-5.7-17.31 13.69a10.54 10.54 0 0 0 5.51 3.94l8.34 2.51 3.46-20.15z"/><path d="m895 197.46 9.68 5.86-7.81 3.11-1.87-9m-3.43-4.84 3.55 17.06 14.88-5.89-18.41-11.14z"/><path d="m735.15 251.12a1.18 1.18 0 0 1 -1.15-1.12l-1.1-43.78a1.18 1.18 0 0 1 1.1-1.22 1.2 1.2 0 0 1 1.19 1.16l1.1 43.78a1.19 1.19 0 0 1 -1.16 1.22z"/><path d="m908.75 248.62a1.18 1.18 0 0 1 -1.18-1.19l.18-43.67a1.18 1.18 0 0 1 1.19-1.18 1.18 1.18 0 0 1 1.18 1.19l-.18 43.67a1.18 1.18 0 0 1 -1.19 1.18z"/><path d="m788.14 8.73s-3.3 0-5.09 1.11a5.78 5.78 0 0 0 -2.55 4.48h-2.89s.59-3.7 2.66-5.28 9-3.47 9-3.47l.08-.12a.55.55 0 0 0 -.25-.8.55.55 0 0 0 -.42 0l-7.4 3.19-1.54.16s-4.75 1.33-5.37 7.3h-2.51s.25-3.19 5.18-6.81c4.43-3.24 11.71-5 13.14-5.33a.46.46 0 0 0 .32-.3.43.43 0 0 0 -.28-.53 1.71 1.71 0 0 0 -1.22 0l-11.09 4.42a11 11 0 0 1 -2.51 1l-1.16.17a6 6 0 0 0 -1.11.29c-1.69.63-6.08 2.77-6.5 8.17h-1.2v-.3a11.23 11.23 0 0 1 6.19-8.94l12.65-6.35a.37.37 0 0 0 .22-.28.42.42 0 0 0 -.4-.51h-.34a.53.53 0 0 0 -.24.06l-15.17 7.63a10.11 10.11 0 0 1 -1.06.48l-1.28.53s-6.15 1.68-6 9.46h-1.53s-1.32-5.08 2.14-8.39l15.86-7.85a.56.56 0 0 0 .29-.35.55.55 0 0 0 -.53-.68h-.32a.58.58 0 0 0 -.26.06l-15.55 8.42s-7.84.83-6.76 11.15h-1.41s-1.14-6.4 2.05-9c3.02-2.52 13.12-6.91 14.39-7.45a.41.41 0 0 0 .19-.18.51.51 0 0 0 -.48-.76h-.23a.4.4 0 0 0 -.22.06l-14.69 8s-8.58 2.11-5.79 11.79h-1.35s-1.5-8.15.89-10.32l15.31-8.59a.44.44 0 0 0 .16-.17.51.51 0 0 0 -.43-.75h-.32a.6.6 0 0 0 -.3.07l-15.11 8.72s-8.85 3.16-5.05 13.69h-2.57s-1.23-8.72.79-10 12.71-9.17 14.03-10.14a.55.55 0 0 0 .19-.26l.07-.2a.55.55 0 0 0 -.55-.72h-.33a.49.49 0 0 0 -.29.11l-13.72 10.5s-8.88 4.38-5.42 13.81l-1.5.83a17.69 17.69 0 0 1 -1.16-9.9c1.82-2.13 11.45-9 12.7-9.89a.53.53 0 0 0 .19-.25l.18-.47a.54.54 0 0 0 -.52-.73h-.51a.54.54 0 0 0 -.34.12l-12.1 10.08a10.66 10.66 0 0 0 -3.52 13.66l-1.57.82s-2-7-1.13-10.68l11-10.33a.6.6 0 0 0 .14-.21l.19-.53a.54.54 0 0 0 -.54-.72h-.49a.51.51 0 0 0 -.36.15l-10.81 10.54s-7.23 4.54-2.69 13.91l-2.36.55s-2.36-6-1.35-9.07l10.53-12.73a.82.82 0 0 0 .18-.36.9.9 0 0 0 -.92-1.11h-.5a.93.93 0 0 0 -.66.34l-9.84 12.55s-6.83 4.9-2.24 13.5l-2 .16s-1.9-3.16-1-9.8l9.76-13a.89.89 0 0 0 .18-.38 1 1 0 0 0 -1-1.27h-.39a1 1 0 0 0 -.87.44l-9.18 13.18s-6.59 5.72-1.93 14.79h-2.17s-2.49-5-1.17-9.8l7.5-12.64a1.91 1.91 0 0 0 .26-1v-.18a.76.76 0 0 0 -.83-.73 1.83 1.83 0 0 0 -1.45.94l-7.37 13.41-2.69 4s-2.07 5.13 1.65 8.73a1.3 1.3 0 0 1 .4.94 3.73 3.73 0 0 1 -3.42-2.23 12.73 12.73 0 0 1 -1.11-7l7.16-14.82a.77.77 0 0 0 -1-.74 1.25 1.25 0 0 0 -.8.69l-6.6 14.51-2.36 4.44s-2.23 5.17 2.67 9.74l-1.72 1.41s-3.4-3.62-3.33-10.81l4.57-13.61a.77.77 0 0 0 0-.3.69.69 0 0 0 -1.07-.5.76.76 0 0 0 -.29.37l-4.6 13.88a51.43 51.43 0 0 1 -1.87 5.06c-.37.46-.46 7 2.54 9.34l-1.19.7s-2.49-1.9-2.7-9.31v-.89l2.57-13.94a.78.78 0 0 0 0-.34v-.06a.76.76 0 0 0 -1.3-.28.72.72 0 0 0 -.19.39l-2.51 15-.24 1.71-.13.19a9.22 9.22 0 0 0 -1.52 7.52 7.65 7.65 0 0 0 1.59 3.2l-1.72 1.19s-2.14-2.54-2-7.93l3-15a.78.78 0 0 0 0-.34.75.75 0 0 0 -1.15-.41l-.07.06a.73.73 0 0 0 -.31.49l-2.25 14.91s-7.07 5.67-.52 12.9l-1.47 3s-4.07-4.26-3.55-7.11l3.04-16.44a.7.7 0 0 0 0-.35v-.12a.69.69 0 0 0 -1.07-.3.7.7 0 0 0 -.25.42l-2.8 16.71s-4.38 6 1.59 11.67c0 0-1 2-2 2 0 0-3.71-4.26-4.08-7-.34-2.53 1.54-15.53 1.81-17.37a.53.53 0 0 0 -.09-.39.57.57 0 0 0 -.88-.07l-.13.14a.55.55 0 0 0 -.14.32l-1.9 17.11s-4 7.69 3.09 12.41l-1.1 3.34s-5.61-5.21-5.76-9.93c-.14-4.3-.41-12.76-.45-14.21a.61.61 0 0 0 -.15-.37l-.11-.13a.6.6 0 0 0 -.9 0 .61.61 0 0 0 -.15.41l.7 16.49s-4.38 8.11 4.93 12l-.61 2.24s-6.4-4.35-7.11-7.53c-.65-2.94-2.16-12.78-2.39-14.29a.61.61 0 0 0 -.17-.34l-.09-.09a.6.6 0 0 0 -1 .27v.1a.87.87 0 0 0 0 .28l2.76 13.88s-1.62 9.56 6.59 13.14l-.55 2.51s-6.13-2.94-7.23-7.44l-4.56-14.66a.57.57 0 0 0 -.27-.34l-.12-.07a.6.6 0 0 0 -.82.25.56.56 0 0 0 0 .44l4.43 14.72a10.19 10.19 0 0 0 6.4 12l-.37 2.18s-5.78-2.3-6.64-5.58l-7-14.5a.58.58 0 0 0 -.23-.26l-.23-.13a.59.59 0 0 0 -.9.51v.31a.58.58 0 0 0 -.05.39l7 14s-2 7 7.17 10.56v2.79s-6.53-3.15-8-6.19c-1.95-2.56-6.54-10.19-7.35-11.52a.56.56 0 0 0 -.35-.27l-.46-.13a.6.6 0 0 0 -.76.63l.06.58a.62.62 0 0 0 .09.27l7.55 11.58s-1.17 8.82 9.25 10.32v1.74a13.12 13.12 0 0 1 -9.07-4.1l-6.93-10.77a.56.56 0 0 0 -.22-.21l-.48-.25a.6.6 0 0 0 -.88.53v.39a.62.62 0 0 0 .09.32l6.86 10.6.7 1.35s.34 6.58 9.62 8.12v1.86a23.32 23.32 0 0 1 -8.11-3.36l-8.3-11a.53.53 0 0 0 -.25-.19l-.65-.26a.6.6 0 0 0 -.82.56v.41a.58.58 0 0 0 .13.37l8.38 10.77s.77 7.72 10.6 8.61v1.5s-5.11.15-8.36-2.36l-9.1-11.65a.62.62 0 0 0 -.22-.17l-.3-.14a.6.6 0 0 0 -.83.69l.1.4a.65.65 0 0 0 .11.22l9 11.65s.93 7.85 11.1 7.3v2.11a10.62 10.62 0 0 1 -8.66-2.45l-8.71-11a.61.61 0 0 0 -.29-.19l-.27-.09a.59.59 0 0 0 -.77.68l.05.3a.58.58 0 0 0 .12.25l8.61 11.22s.37 8.58 11.85 6.77v2.54s-6.55.92-9.74-1.8l-10.56-14.35a.6.6 0 0 0 -.27-.2l-.54-.21a.6.6 0 0 0 -.81.61v.4a.54.54 0 0 0 .13.32l11.34 14.47s.61 8.06 12.53 6.37l1.16 2.42s-3.49 1.62-9.25 0l-10.52-11.18a.57.57 0 0 0 -.34-.18l-.3-.05a.6.6 0 0 0 -.69.7l.06.28a.57.57 0 0 0 .15.3l12.11 12.57a11.14 11.14 0 0 0 10.4 3.25c.3-.07.59-.15.89-.24a1.46 1.46 0 0 1 1.78.84c.06.15.07.27 0 .33-.31.21-4 2.63-10.26 1.07l-9.57-10.64a.6.6 0 0 0 -.3-.19l-.22-.05a.6.6 0 0 0 -.73.69l.06.3a.6.6 0 0 0 .15.31l8.38 8.83a24.51 24.51 0 0 0 5.66 4.44 10.35 10.35 0 0 1 2.05 1.36c.45.59 6.12.56 8.24-.88a1 1 0 0 1 1.43.22 1.37 1.37 0 0 1 -.18 1.58 14.74 14.74 0 0 1 -3.54 1 11 11 0 0 1 -8.79-2.36l-9.42-7.64a.52.52 0 0 0 -.26-.12h-.22a.6.6 0 0 0 -.69.76v.09a.72.72 0 0 0 .2.29l15.72 12.78s2.42 2.57 10.83.42a1 1 0 0 1 1.23.9.56.56 0 0 1 -.39.55 12.5 12.5 0 0 1 -9.19 1.28l-11.69-9.66a.65.65 0 0 0 -.22-.11l-.45-.13a.6.6 0 0 0 -.72.79l.1.26a.61.61 0 0 0 .19.26l14.77 11.26a9.68 9.68 0 0 0 11.24.46l.4-.28a1.73 1.73 0 0 1 .4 3.32h-.08a10.78 10.78 0 0 1 -10.49-1.5l-8.47-6.45a.41.41 0 0 0 -.21-.1l-.21-.06a.61.61 0 0 0 -.73.74v.06a.64.64 0 0 0 .23.33l13.72 9.71a16.67 16.67 0 0 0 2.81 1.62l1.76.79s5.59.45 8-2a1.46 1.46 0 0 1 1.16-.46c.39 0 .71.27.4 1-.61 1.53-5.48 4.41-8.54 2.9l-12.65-7a.61.61 0 0 0 -.27-.08h-.3a.6.6 0 0 0 -.62.7.62.62 0 0 0 .31.43l17.72 9.26s5.07 1.42 8.78-2a.9.9 0 0 1 1-.2c.29.12.5.4.17 1 0 0-3.61 3.58-7.9 2.63l-11.32-4.82a.78.78 0 0 0 -.21 0h-.27a.59.59 0 0 0 -.52.92.53.53 0 0 0 .28.23l13.79 5.32s7.07 2.45 10.59-2c0 0 .68-.43.62.09s-.55 4-5.79 3.89l-14.37-3.45a.65.65 0 0 0 -.24 0l-.85.14a.61.61 0 0 0 -.3 1l.51.44a.68.68 0 0 0 .27.13c1.6.32 15.15 3 16.42 3.64 0 0 4.32 2.12 7.45-1a1 1 0 0 1 .8-.33c.3 0 .51.17 0 .75 0 0-1.9 2.85-7 2.15l-11.14-2.65a.61.61 0 0 0 -.19 0l-.59.05a.6.6 0 0 0 -.41 1l.35.4a.74.74 0 0 0 .25.17c1.65.59 17.13 6.07 23.07 4.45l4.32-3.5 3.45 1.25a1 1 0 0 0 .73 0 1 1 0 0 0 .57-1.08 1 1 0 0 0 -.68-.76l-2.71-.84a12 12 0 0 1 -1.77-4.41c-.39-2.4-1.9.52-1.9.52s-.55.25-.74-.76-.61-3.8-1.19-4.63-3.77-10.56-4.26-12a.49.49 0 0 0 -.23-.28l-.14-.08a.52.52 0 0 0 -.74.28.53.53 0 0 0 0 .33l4.79 13.27a1.63 1.63 0 0 1 -.07 1.3.71.71 0 0 1 -1.14.25 21.32 21.32 0 0 1 -.49-3.92 2 2 0 0 0 -.64-1.75c-.2-.2-3.87-11.7-4.2-12.76a.39.39 0 0 0 -.08-.14l-.4-.55a.51.51 0 0 0 -.91.18l-.13.54a.45.45 0 0 0 0 .28l4.15 12.51a3.52 3.52 0 0 1 .15 1.67 2.61 2.61 0 0 1 -2.76 2.19s1.75-4.93.92-7.26l-4.38-14.34-.08-.16-.39-.5a.51.51 0 0 0 -.9.19l-.16.68a.5.5 0 0 0 0 .27l4 12s1 5.27-2.88 4.38c0 0 2-6.46.77-8.42l-4-13.57a.47.47 0 0 0 -.16-.25l-.44-.36a.51.51 0 0 0 -.82.28l-.15.66a.5.5 0 0 0 0 .27l4 12.57s-1.13 6.46-5.21 4.5a1.85 1.85 0 0 1 .77-2.38 14.47 14.47 0 0 0 1.38-9.35l-4.33-14a.38.38 0 0 0 -.08-.17l-.32-.4a.5.5 0 0 0 -.9.24l-.11.73a.44.44 0 0 0 0 .23l4.23 13.39s-.83 5-4.94 7c0 0-3.3.7-1.47-2.27 0 0 3.4-2.42 3.31-6.34 0 0-.58-6.19-1-7.72l-1.9-11.3a.57.57 0 0 0 -.13-.27l-.28-.31a.54.54 0 0 0 -.91.18l-.24.68 2.81 14.67s-2.7 5.73-6.41 6.25c0 0-1.68-.58.07-2.21 0 0 3.43-3.06 3.4-7.19 0-3.79-.91-16.2-1.06-18.27a.5.5 0 0 0 -.28-.43l-.18-.1a.54.54 0 0 0 -.69.15l-.22.29a.6.6 0 0 0 -.1.36l1.18 15.67s-2.61 4.81-5.91 5.51a1.38 1.38 0 0 1 -1-2s5.23-3.28 5.45-7.23-.55-4.87-.58-5-.3-11.6-.34-13.07a.48.48 0 0 0 -.09-.29l-.35-.51a.54.54 0 0 0 -.87 0l-.29.38a.55.55 0 0 0 -.1.35l.6 9.95a11.22 11.22 0 0 1 -5.66 10.53 4.9 4.9 0 0 1 -2.61.77l-.19-.8a9 9 0 0 0 5.58-7.72l.58-2.54.82-14.72a.38.38 0 0 0 0-.15l-.14-.66a.54.54 0 0 0 -1-.12l-.16.33a.47.47 0 0 0 -.06.2l-.8 11.77a7.3 7.3 0 0 1 -2 4.52c-1.63 1.72-4.06 3.92-6 4.22a4.26 4.26 0 0 1 -1.26-3 11 11 0 0 0 6.77-7.66l4.08-16.4a.43.43 0 0 0 0-.25l-.08-.32a.54.54 0 0 0 -.87-.28l-.32.27a.49.49 0 0 0 -.18.3l-3 13.86a4.18 4.18 0 0 1 -1.49 2.37c-1.54 1.21-4.39 3.05-7.53 3.07l.06-2s6.07-1.05 8.24-10.2l3.39-9.9a.5.5 0 0 0 0-.24l-.1-.73a.54.54 0 0 0 -.67-.46l-.71.19a.54.54 0 0 0 -.37.36l-3.65 11.91s-3.28 3.34-7.05 3.31v-2.42s6.8-1.2 8.12-9.34c.26-3.32 3.54-10.67 4-11.73a.61.61 0 0 0 0-.27l-.05-.53a.54.54 0 0 0 -.86-.38l-.78.58a.58.58 0 0 0 -.19.27l-4 12.42s-2.57 3.34-8.39 3.77v-1s7.6-1 8.55-10.69l5.56-10.12a.48.48 0 0 0 .06-.24v-.49a.54.54 0 0 0 -.66-.54.55.55 0 0 0 -.35.28l-5.77 11.2a10.45 10.45 0 0 1 -7.87 4.87v-1.47a11.39 11.39 0 0 0 7.9-8.76l9.79-11.63a.5.5 0 0 0 .12-.29v-.39a.54.54 0 0 0 -.55-.59h-.24a.56.56 0 0 0 -.4.2l-9.53 11.69s-3.82 4.08-7.29 3.53v-2.33s5.61.29 10.05-6.65l9.89-11.49a.68.68 0 0 0 .12-.26l.14-.81a.54.54 0 0 0 -.54-.63h-.63a.51.51 0 0 0 -.41.2l-9.52 12s-1.41 2-8.73 2.18l.06-1.5s8.18.95 11.67-6.65l10.68-12.44a.57.57 0 0 0 .13-.27l.06-.43a.54.54 0 0 0 -.61-.6l-.62.08a.58.58 0 0 0 -.34.19l-10.24 12.56a14.4 14.4 0 0 1 -10 2.14l.3-1.41s8.79.92 12.38-7.13l10.6-10a.61.61 0 0 0 .17-.34v-.13a.54.54 0 0 0 -.54-.59 2.15 2.15 0 0 0 -1.46.58l-10.5 10s-1.38 3.4-8.67 2.08l.19-1.81s9.68 1.28 12.83-5.94l11.06-8.73.49-1.07h-1.38l-10.66 8.09s-3 3.89-11.18 2l.8-2s7.65 2 12.58-3.56l14-8.54a.67.67 0 0 0 .28-.36.64.64 0 0 0 -.64-.83h-.55a.63.63 0 0 0 -.32.1l-13.14 8.24s-5.34 1.29-9.14-.31l.22-1.5s6 1.1 10.59-1.53l15.6-7.52a.59.59 0 0 0 .31-.35.59.59 0 0 0 -.66-.77l-.73.11a.64.64 0 0 0 -.18.06l-13.94 7.21s-5.45.87-8.79-2.2l1.13-1.63s8.85 4.32 13-1.4l13.47-4.33a.71.71 0 0 0 .42-.34.73.73 0 0 0 -.55-1.06l-.62-.07a.69.69 0 0 0 -.32 0l-12.83 4.54s-4.56 2.45-9.25-2l2.7-1.78s5.23 4.2 10.35 1.63l17.78-6.12a.65.65 0 0 0 .4-.38.68.68 0 0 0 -.57-.93h-.47a.67.67 0 0 0 -.28 0l-15.82 5.59s-4.5.83-7.87-3.83l2.14-1.44s4.38 4 11.27 1.5a151.85 151.85 0 0 1 16.55-4.65.49.49 0 0 0 .35-.33.48.48 0 0 0 -.59-.61l-15.72 4.15s-4.32 1.17-8.86-4.41c0 0 .34-.67.77-.7s4.1 5.27 12.28 1.81l12.71-2.52a.71.71 0 0 0 .51-.2.7.7 0 0 0 -.41-1.08l-.36-.09a.86.86 0 0 0 -.32 0l-13.34 3s-6.8-3.07-8-4.81a.9.9 0 0 1 1.29-.83c1.22.4 4.25 6.46 13.14 3.28l16.25-3.35a.67.67 0 0 0 .41-.27.66.66 0 0 0 -.41-1l-.31-.07a.66.66 0 0 0 -.28 0l-16.46 3.62s-7.07-3-8.18-5.09c0 0-.06-2 2.09-.95s3.06 4.84 11.73 3.19c0 0 12.82-2 14-2.13h.34a.61.61 0 0 0 .06-1.17.57.57 0 0 0 -.29 0l-14.28 2.24s-5.76-2.14-8.24-5.69c0 0 .4-2.91 2.85-.62s4.41 5.55 12.16 4.14l15.89-2.17a.68.68 0 0 0 .46-.25.73.73 0 0 0 -.44-1.19h-.3-.22l-16.53 2.29s-7.08-4.41-7.47-6.92c0 0 .73-.95 1.89.15s2.33 5.82 13 4.66c9.27-1 14.93-1.56 16.24-1.69a.55.55 0 0 0 .45-.28.59.59 0 0 0 -.26-.84l-.42-.19a.63.63 0 0 0 -.3 0l-17.15 1.64s-6.09-3.18-7.07-6.12c0 0 .46-2.67 2.39-.52s3.49 5.23 10.38 5c6.34-.17 17.59-1.25 19.34-1.42a.53.53 0 0 0 .38-.2.6.6 0 0 0 -.18-.93l-.16-.08a.65.65 0 0 0 -.31 0l-17.15 1.37s-6.56-3-8.27-7c0 0 .46-2.36 2.48-.8s2.82 5.58 11 5.82l16.63-.78a.63.63 0 0 0 .49-.27.62.62 0 0 0 -.23-.93l-.47-.24a.61.61 0 0 0 -.33-.06l-13.79 1s-5.88-2.09-8.15-6.8c0 0 2.61-1 3.1-.06a10 10 0 0 0 11.42 4.35l16.54-.86a.56.56 0 0 0 .47-.31.54.54 0 0 0 -.23-.72l-.32-.19a.55.55 0 0 0 -.31-.07l-16.22.94s-6.34-3.49-7.6-6.4c0 0-.15-2.05 1.63-.86 0 0 3.15 7.38 13.38 6l16.66-.72a.79.79 0 0 0 .3-.08.78.78 0 0 0 0-1.39l-.28-.15a.78.78 0 0 0 -.42-.09l-16.81 1.24s-6.68-3.8-7.69-6.52c0 0 .34-2.12 1.78-.68s2.57 5.36 8.12 5.91l19.8-1.55a.6.6 0 0 0 .31-.1l.16-.1a.68.68 0 0 0 -.05-1.16.66.66 0 0 0 -.41-.08l-17.18 1.93s-2.33.12-6.8-6.68c0 0 .58-.94 2-.33 0 0 3 7.2 11 5.51l17-2h.15a.53.53 0 0 0 0-1l-.16-.06a.55.55 0 0 0 -.22 0l-17.47 2.07a13.11 13.11 0 0 1 -6.06-6.4s1.47-1 2.45 0c0 0 2.11 5 9 5.14l4.44-.76 14.44-1.12a.92.92 0 0 0 .27-.08.71.71 0 0 0 0-1.26.69.69 0 0 0 -.42-.08l-17 1.78a11.89 11.89 0 0 1 -6.4-4.9s.24-.89 1.22-.33a8.67 8.67 0 0 0 8.39 4.25l19.53-2.18a.67.67 0 0 0 .3-.13.57.57 0 0 0 -.09-.94l-.28-.15a.57.57 0 0 0 -.34-.07l-14.06 1.85a14.92 14.92 0 0 1 -8.49-4.07c-.91-.89 3-.49 3-.49s2.14 4.25 8 3.46l1.65-.77 10.41-1.84a.85.85 0 0 0 .24-.09l.09-.05a.78.78 0 0 0 0-1.37.76.76 0 0 0 -.55-.07l-11.57 2.71s-3.55-.8-4.62-3c0 0 0-.43 2.42-.28 0 0 2.51 3.49 7.41.89l7.21-1.95a.53.53 0 0 0 .28-.18.53.53 0 0 0 -.27-.84h-.07a.58.58 0 0 0 -.32 0c-.92.33-5.82 2-8.87 1.88a3.2 3.2 0 0 1 -2.64-1.63 1.26 1.26 0 0 0 -.05-1.9.81.81 0 0 0 -.18-.1c-.24-.1-.82-.42-.24-.95s9.41-4.45 10.86-5.06a.53.53 0 0 0 .28-.27.56.56 0 0 0 -.4-.81h-.19a.57.57 0 0 0 -.34 0z"/><path d="m710.85 108.34a6.35 6.35 0 0 1 3.07-3.13 23.32 23.32 0 0 0 7.18-6.3c.95-1.25 2-2.67.88-4.75a4.53 4.53 0 0 1 .53-5.3c.79-.89.18-2.6 1.57-3.32.58-.29.27-1.09.8-1.41a20.62 20.62 0 0 0 4.63-3 18.28 18.28 0 0 0 2-2.71c.61-1.3.15-2.84 1-4.13.6-.89 1.06-1.28 2-.5 2 1.93 4.36 1.25 6.65.85.32-.06.7-.46 1-.26 2.28 1.47 3.83-.1 5.49-1.26.73-1.38 2.32-1.42 3.45-2.19.35-.24.82-.33 1.1-.62a8.79 8.79 0 0 1 6.8-3.12c2.63-2.22 5.87-1.5 8.89-1.8a7.45 7.45 0 0 0 2.8-.6c2.22-1.12 4.68-1.1 7.09-1.05a5.69 5.69 0 0 0 3.1-.84c2.63-1.57 2.64-1.55 5 .24a1.28 1.28 0 0 1 1.12 1.24 5.87 5.87 0 0 1 .05.59 12.75 12.75 0 0 0 .07 1.38c.12.5.52.8.79 1.2a3.13 3.13 0 0 1 -.14 3.87c-.3.38-.69.68-1 1.09-1 1.42-.59 2.59 1 3.23a3.9 3.9 0 0 0 1.53.54 3.24 3.24 0 0 1 .81.22 1.28 1.28 0 0 1 .45.34c2 1.36 4.06 2.26 6.62 1.18a3.16 3.16 0 0 1 3.73.77c.71.82 1.66.66 2.53.82a7.47 7.47 0 0 0 5.91 3.57 22.33 22.33 0 0 1 6.48 1.88 3.8 3.8 0 0 0 3.64.11c1.54-1.63 1.7-2.83.62-4.56-.24-1.22-.21-2.36 1-3.14 2.89-2.72 6.14-3 9.35-.8a13.35 13.35 0 0 0 3 1.21c4.48 1.72 9.15 1.62 13.81 1.81a.92.92 0 0 1 .53.11c2.07 1.61 3.7.49 5.3-.82a15.11 15.11 0 0 1 8.49-1c2 .3 4.14.63 5.85-1a5.44 5.44 0 0 1 1.45-2.35 1.38 1.38 0 0 0 .31-1c-.25-2.46 1-4.65 1.2-7 .45-.83 1.19-1.51 1.26-2.54a7.38 7.38 0 0 0 -.57-3.72 2.39 2.39 0 0 1 .24-2.43 12.44 12.44 0 0 1 4.76-3.44 9.64 9.64 0 0 1 3.62-.61 13.54 13.54 0 0 0 6.8-1.89 20.85 20.85 0 0 1 8.88-2.05 7.93 7.93 0 0 0 3 .56 1 1 0 0 1 1.1.45c.65 1.34 2 2.06 2.75 3.32a6 6 0 0 0 1.39 1.81 1.58 1.58 0 0 1 .23.47 4.82 4.82 0 0 1 -.28 2.85 3.21 3.21 0 0 0 .93 4.09c1.22 1 1.58 2.79 3.2 3.39a10.65 10.65 0 0 0 1.3.78 2.82 2.82 0 0 1 .44.26c.56.39 1.17.87 1.05 1.58-.39 2.31 1.22 3.48 2.59 4.8a1.79 1.79 0 0 1 .27.44 4.13 4.13 0 0 1 -.27 3.16 1.3 1.3 0 0 0 0 1.38 14.45 14.45 0 0 0 3.05 4.42 2.68 2.68 0 0 1 .78.65 5.75 5.75 0 0 0 1.35 1.75 1.65 1.65 0 0 1 .28.41c.67 1.26 2.26 1.59 2.9 2.88a9.9 9.9 0 0 0 .7 2.07c.63 1 1.1 2 2.47.83.62-.53 1.14-.21 1.32.57a4.64 4.64 0 0 1 .13.91c.06 2.29 1.19 3.42 3.47 3.08a9.24 9.24 0 0 0 5.6-.24 4.55 4.55 0 0 0 1.54-1.42 41.92 41.92 0 0 1 4.21-5.1c.47-.56 1.26-.6 1.36.26.39 3.32 2.8 4.76 5.39 6.07 2.58 0 4.36 1.65 6.33 2.93a1.73 1.73 0 0 1 .64.93c.71 3.29-1.63 5.13-3.63 6.86-1.31 1.15-2.27 2.11-2.13 3.91a2.09 2.09 0 0 1 -1.16 2.3c-.27.13-.61.32-.67.6-.51 2.23-2.63 2.56-4.05 3.76a30.31 30.31 0 0 1 -6.51 4.24 12.87 12.87 0 0 0 -5 4.34 7.31 7.31 0 0 1 -2.44 1.9c-2.2 1.24-4.56 2.13-6.58 3.84-1.61 1.34-3.91 1.89-5.79 3-.54.32-1.36-.12-1.69.32-.59.83-1.41.57-2.14.71a6.93 6.93 0 0 0 -2.81 1.68 5.7 5.7 0 0 1 -5 1.06c-1.61-1.38-1.83-3.42-2.52-5.24-.22-.61-.62-1.13-.79-1.76a11 11 0 0 0 -2.42-7 56.36 56.36 0 0 1 -4-5.34 12.43 12.43 0 0 1 -1.37-1.7 6.37 6.37 0 0 0 -3.19-2.77 7.87 7.87 0 0 1 -3.47-3.36 2.08 2.08 0 0 1 -.24-.47c-.25-.92-.45-1.86-.72-2.78.15-3.29-2.43-4.91-4.27-7-2.36-.94-2.67-3.54-4.21-5.15a3.9 3.9 0 0 1 -.33-.38 23.08 23.08 0 0 0 -2.13-2.71 26.62 26.62 0 0 0 -2.21-2.54 2.89 2.89 0 0 0 -.87-1.09 2.81 2.81 0 0 1 -.35-.34c-.4-.53-1-.92-1.14-1.63a21.16 21.16 0 0 1 -.12-2.52c0-.29 0-.66-.34-.77s-.64.23-.8.55a9.25 9.25 0 0 0 -.88 2.16 1.25 1.25 0 0 1 -1.53 1.15 1.68 1.68 0 0 1 -.48-.2c-1.43-1.23-2.54-2.82-4.39-4a4.38 4.38 0 0 0 1.69 3.66 3.35 3.35 0 0 1 .83 1c.36 1.35 1.49 2.16 2.21 3.25 1.81 2.68 3.14 5.64 5 8.29.3.46.32 1.08.76 1.48a3.7 3.7 0 0 1 .33.36 7.25 7.25 0 0 1 1.33 2.75 5.42 5.42 0 0 0 3.39 3.5 2.35 2.35 0 0 1 1 1 9.22 9.22 0 0 0 1 2.24c1.32 1.6.3 3.36.38 5.29a10.36 10.36 0 0 1 .16-2c.88.71.89.71.93 2.25 0 1.36.11 2.7 1.49 3.49a13.92 13.92 0 0 1 3.19 2.42 3.25 3.25 0 0 1 .35.39 9.59 9.59 0 0 1 1.68 3.94 6.61 6.61 0 0 0 3 4.48 17.91 17.91 0 0 0 5.17 2.1 3.71 3.71 0 0 1 .47.16 9.41 9.41 0 0 0 1.62.64 3.15 3.15 0 0 1 .47.2c2.49 1 3.66 3.33 5.08 5.38a7.41 7.41 0 0 0 2.45 5.28 3 3 0 0 0 1.76.83 3.93 3.93 0 0 0 3.44-.63 3.13 3.13 0 0 1 2.36-.82 3.87 3.87 0 0 0 3.34-1.05c1.44.24 2.67-.55 4-.82.92-.56 2.06-.15 3-.67s2.32-.29 3-1.47c.33-.38.83-.47 1.24-.72 1.23-.76 1.9-.33 2.06 1.06a21.87 21.87 0 0 1 .11 3c.15 2.93-1.47 5.18-2.78 7.6a34.14 34.14 0 0 0 -1.74 3.83c-1.08 2.84-1.85 5.82-3.71 8.29-1.58 2.09-3 4.34-4.64 6.33-1.48 1.75-3.67 2.67-5.56 3.92a8.32 8.32 0 0 0 -2.32 2.26c-1.65 2.33-3.43 4.57-5.11 6.88-.49.66-1.1 1.38-2.15 1.05a4.62 4.62 0 0 1 -1.4-1.81c-.85-1.79-.73-3.73-1-5.63-.16-1.33-.78-2.62-.64-4a2 2 0 0 1 .39-1.36c1.57-1.59 3-3.35 5.12-4.26a13.16 13.16 0 0 1 4.76-2.54c2.62-.83 4.08-2.68 5.41-4.81a16.48 16.48 0 0 0 3-3.94c.53-.59 1.16-1.17.79-2.07s-1.28-.91-2-.83a11.09 11.09 0 0 1 -4.25-.86c-2-.58-4.25-.45-6.16-1.53a10.17 10.17 0 0 1 -1.59-1c-.89-1.48-2.65-2.39-2.87-4.35 0-.4-.52-.73-.93-.81-2.07-.44-2.91-2-3.63-3.76a1.25 1.25 0 0 1 -.07-.83c1-2.91.48-3.68-2.66-3.78-2.35-.06-4.77.41-7-.82-1.62-.84-2.24-2.42-3-3.92a27.6 27.6 0 0 0 -1.38-3.22 5.85 5.85 0 0 1 -.22-1.25c-.09-.49.26-1.27-.54-1.33-.59 0-.93.56-1.16 1.06-1.06 2.4-2.14 4.8-1.74 7.56.09.66-.08 1.36 0 2a8 8 0 0 1 -2.07 6.4 10.92 10.92 0 0 0 -1.58 2.88c-1.13 2.85-2.64 5.58-2.3 8.82a2.51 2.51 0 0 1 -.71 1.85c-1 1.21-.86 2.18.5 3a6.73 6.73 0 0 1 1.22 1.11c.5.55 1 1.11 1.56 1.62s1 1 1.49 1.51a4.52 4.52 0 0 0 1.33 1.32 2.44 2.44 0 0 1 .4.32 1.48 1.48 0 0 1 .59 1.16 1.91 1.91 0 0 1 -1.52 1.42 9.48 9.48 0 0 0 -4.1 2.34 3.46 3.46 0 0 1 -3.31 1.15s-.1 0-.05 0c.83.71-.08.83-.38.85-1.24.12-2.37.61-3.57.81a5.17 5.17 0 0 1 -3.36-.55c-1.7-.87-3.39-2-5.5-.93a5.14 5.14 0 0 1 -2.19.08 3.19 3.19 0 0 1 -1.1-.2 12.33 12.33 0 0 1 -3.36-3.16 24.55 24.55 0 0 0 -6.23-5.26c-2-1.34-3.77-3.05-5.92-4.21-.66-.35-.64-1-.58-1.6a4.93 4.93 0 0 0 -2-4.62 3.11 3.11 0 0 1 -1.06-1.84 6.19 6.19 0 0 0 -2.26-3.84c-.8-.77-.73-1.46-.4-2.58a53.23 53.23 0 0 0 1.2-6.94 4.3 4.3 0 0 1 1.49-1c1.59-.9 2.17-1.89 1.58-3.58-.69-2-.49-3.93-.56-5.91a5.64 5.64 0 0 0 -.34-1.82c-.13-.23-.26-.46-.4-.69a1.85 1.85 0 0 0 -1.33-1.15c-2-.17-3.42-1.89-5.49-1.72-.49 0-.88-.38-1.19-.76a40.32 40.32 0 0 0 -6.51-2.72c-1.42-.52-2.93-.64-4.24-1.65-.45-.34-1.73.18-2.65 0a2.12 2.12 0 0 1 -.47-.25c-1.2-1.68-3.1-.75-4.62-1.24a1.14 1.14 0 0 1 -.39-.3c-.08-.87-1-.59-1.29-.61-2.09-.19-4-1.44-6.28-.62a6.14 6.14 0 0 1 -4.16-.09c-.52-.18-1.15-.56-1.56-.16-1.15 1.1-2.7 1.47-3.95 2.45q-5.08 4-10.23 7.93a78.21 78.21 0 0 0 -7.09 5.47c-1 1-2.51.46-3.55 1.27a2 2 0 0 1 -2.28-.67 9.39 9.39 0 0 0 -3.92-2.14 25.66 25.66 0 0 1 -5.89-2.81 41.57 41.57 0 0 0 -3.73-2.26 2 2 0 0 1 -.46-.24 4.46 4.46 0 0 0 -1.33-.7 78.1 78.1 0 0 1 -9.8-5.83c-.49-.69-1.39-.43-2-.86a1.76 1.76 0 0 1 -.44-.61c-.48-.5-.81-1.3-1.76-.89a1.24 1.24 0 0 1 -.44-.23 3.07 3.07 0 0 0 -3.74.63 2.16 2.16 0 0 0 -.1 2.84c.7 1.22.22 2.75.28 4.15a4.46 4.46 0 0 1 -.09 1.63c-.17.55.14.46.46.42a1.59 1.59 0 0 1 .27.47 1.81 1.81 0 0 1 .11.72c-.44 3.72 1.2 7.3.74 11 0 .35.19.56.43.77a2.23 2.23 0 0 1 .32 1.1c.21 2.16-.41 4.37.57 6.51a1.29 1.29 0 0 1 -1.31 1.9c-2.36-.12-4.61.57-6.87.94s-4.82.47-7.2 1c-1.81.42-3.81.08-5.37 1.44a1.14 1.14 0 0 1 -.85 0c-.92-1.47-1.84-2.88-3.93-2.76a3.62 3.62 0 0 1 -1.81-.82 2.07 2.07 0 0 0 -2.54.06c-2.49.58-2.8.35-2.78-2.2a6.15 6.15 0 0 0 -.76-3.69 3.07 3.07 0 0 1 -.35-2 5.63 5.63 0 0 0 -1.62-4.1c-1.13-1.23-1.87-2.35-1.18-4.05.24-.61-.11-1.34.19-2 .6-.83 1.35-1.63 1.27-2.74-.2-2.73 1.32-4.63 3.05-6.42a4.9 4.9 0 0 0 1.76-4c-.15-1.52 1.15-2.15 2-3 .67-.57.19-1.57.71-2.23z"/><path d="m882.87 244.3c-.53.56-2.75 2.44-4.68 4a19.44 19.44 0 0 1 -10.37 4.48c-2.64.28-5.33 0-6.82-1.85a5.89 5.89 0 0 1 -.63-6.76 4.68 4.68 0 0 0 2.49 1.91 4.44 4.44 0 0 0 1.3.18c4.46 0 10.52-.4 13.76-2.92a5.28 5.28 0 0 0 1.89-2.75c.45-1.65.31-4.2-3.77-5.87-2.51-1-6.49-.92-10.65 3.18a40.43 40.43 0 0 0 -3.24 3.51q-.23.27-.42.54a.92.92 0 0 1 -1.42.1 15.27 15.27 0 0 1 -1.79-3.35l-6.63 2.81a3 3 0 0 0 -.7.4c-2 1.64 0 4.81 0 4.81a1.69 1.69 0 0 1 .23.51 2.4 2.4 0 0 1 -1.1 2.68c-5.8 3.61-22.29 7.28-22.29 7.28a35.71 35.71 0 0 0 16-2.26c6.3-2.55 7.92-4.84 8.32-5.7.14-.28.28-.56.43-.83 1.16-2-.11-3.63-.11-4.37s1.22-1.17 1.22-1.17l3.49-1a2.86 2.86 0 0 0 1.76 2.31.31.31 0 0 1 .18.32 2.89 2.89 0 0 1 -.55 1.33 3.21 3.21 0 0 0 -.41.83 6.52 6.52 0 0 0 5.33 8.69 14.75 14.75 0 0 0 4.53-.06c7.66-1.15 9.47-4.47 9.88-5.65a.45.45 0 0 1 .56-.29c1.62.44 7.15 1.9 8.25 1.59 1.28-.37 1.77-2.7 1.77-2.7-.42-3.23-4.83-4.97-5.81-3.93zm-13.31-7.22c1.51-.31 6.33-1.15 8 3.44a1 1 0 0 1 -.64 1.56c-1.38.41-8.92 3.86-14.7.37.03 0 4.41-4.76 7.34-5.37zm15.8 11.36a17.91 17.91 0 0 1 -4.3-.62 3.26 3.26 0 0 1 2.69-.89 2.62 2.62 0 0 1 2.17 1.17c.14.23-.07.36-.56.34z"/><path d="m838.95 230.03 3.13 2.57-2.21 2.45-3-2.51z"/><path d="m766.32 223.95 3.17 2.13-2.15 2.16-3.06-2.08z"/><path d="m760.63 223.95 3.17 2.13-2.15 2.16-3.05-2.08z"/><path d="m818.07 230 .12-.38a1.33 1.33 0 0 0 -.08-1.05l-2.92-5.68-1.48 2.45c2.85 17.22 1.87 17.22 1.87 17.22.06.86-3.89 1.71-3.89 1.71a5.92 5.92 0 0 0 -1.4-2.63c-2.21-1.9-4.84-1.17-6.44 1.65s1.84 3.86 1.84 3.86h4.72c1 4.78-23 10.9-23 10.9l8.94-.72c15.5-4.21 15.62-10.67 15.62-10.67a6.68 6.68 0 0 0 4.48-2.7 5.78 5.78 0 0 0 1-4.14 69 69 0 0 1 -.66-11.6zm-9.5 14.82s-2.82-.24-2.82-1.16 3.5-.22 2.82 1.19z"/><path d="m763 238.37c-1.1-1.05-2.14-2.06-3.2-3.06-.22-.21-.49-.38-.73-.58s-.32-.26-.34-.4a3.41 3.41 0 0 1 .43-2.32 28.78 28.78 0 0 1 4.09 2 14.3 14.3 0 0 1 -1.71.21 13.36 13.36 0 0 0 3.07 2.33 49.09 49.09 0 0 0 4.71-5.72 1.74 1.74 0 0 1 0 1.38 19.36 19.36 0 0 1 -1.5 2.49c-.64.87-1.4 1.7-2.14 2.57l.75.7a5.08 5.08 0 0 1 1.84 3.46c.09 2-1 3.5-3.32 4.47a12.64 12.64 0 0 1 -2.21.7c-1.45.31-2.4-.18-2.65-1.29a5.3 5.3 0 0 1 .33-3.09 13.18 13.18 0 0 1 2.28-3.49zm1.17.71a14.27 14.27 0 0 0 -3.08 3.94c-.31.66 0 1 1 1.09a3.15 3.15 0 0 0 .92 0 9.85 9.85 0 0 0 4.07-1.74c.21-.16.38-.31.18-.57a11.5 11.5 0 0 0 -3.07-2.72z"/><path d="m762.79 251.68c.15-.43.25-.78.38-1.11a.52.52 0 0 1 .27-.24l8.95-3.82a2.13 2.13 0 0 1 .3-.09 1.24 1.24 0 0 1 -.52 1.07l-9.17 4.09a2.39 2.39 0 0 1 -.21.1z"/><path d="m796.48 238.5c.21-.5.35-.91.55-1.3a.79.79 0 0 1 .42-.3l14.55-5.06.49-.13a1.3 1.3 0 0 1 -.78 1.27l-14.81 5.39z"/><path d="m858.06 234.22c.35-.59.58-1.07.92-1.53a1.57 1.57 0 0 1 .72-.37l24.81-7c.27-.08.55-.13.84-.19.12.56-.51 1.27-1.31 1.51l-25.3 7.39z"/><path d="m772.44 230.07a15.15 15.15 0 0 1 .75-1.32 1.19 1.19 0 0 1 .58-.31q10-2.81 20-5.58c.21-.06.44-.1.68-.15.08.49-.43 1.1-1.07 1.29l-20.38 5.93z"/><path d="m787.38 238.78c2.07-1.18 6.76-3 6.76-3s-3.85-.26-5.44-.23a5.29 5.29 0 0 1 -1.32 0c.29-1.38 1.19-2.38 3.64-2.38 1.51 0 6.34.27 6.34.27a12.19 12.19 0 0 1 -5.69 4.68c-1.1.14-3.98.69-4.29.66z"/><path d="m860.15 227.38a54.53 54.53 0 0 1 7.86-2.79s-3.82 0-5.41 0a5.29 5.29 0 0 1 -1.32 0c.29-1.38 1.16-2.72 3.61-2.72h6.11a10.32 10.32 0 0 1 -5.35 4.87c-1.06.16-5.18.67-5.5.64z"/><path d="m783.27 229.71a1.14 1.14 0 0 1 -.15 1 8.56 8.56 0 0 0 -1.06 3 2 2 0 0 0 .16 1 .79.79 0 0 0 1.35.21 9.17 9.17 0 0 0 .78-.89 7.29 7.29 0 0 1 -.66 2 1.3 1.3 0 0 1 -1.25.65 1.19 1.19 0 0 1 -1.12-.91 3 3 0 0 1 0-1.69 14.88 14.88 0 0 1 1.95-4.37z"/><path d="m833.48 236.67a1.37 1.37 0 0 1 -.32 1.21 10.1 10.1 0 0 0 -1.68 3.44 2.27 2.27 0 0 0 0 1.24.94.94 0 0 0 1.57.44 11.59 11.59 0 0 0 1-.95 8.72 8.72 0 0 1 -1.07 2.34 1.58 1.58 0 0 1 -1.58.59 1.42 1.42 0 0 1 -1.18-1.24 3.61 3.61 0 0 1 .21-2 17.71 17.71 0 0 1 3.05-5.07z"/><path d="m855.36 250.1a1.08 1.08 0 0 1 -.3 1.07 8.3 8.3 0 0 0 -1.63 3.05 1.86 1.86 0 0 0 .05 1.12 1 1 0 0 0 1.57.42 12.59 12.59 0 0 0 1-.84 7.24 7.24 0 0 1 -1 2.07 1.63 1.63 0 0 1 -1.57.51 1.37 1.37 0 0 1 -1.19-1.12 2.86 2.86 0 0 1 .18-1.78 15 15 0 0 1 2.89-4.5z"/><path d="m885.56 229.06a1.08 1.08 0 0 1 -.26 1 8.13 8.13 0 0 0 -1.45 3 1.78 1.78 0 0 0 .08 1.07.93.93 0 0 0 1.49.35 10.19 10.19 0 0 0 1-.83 7 7 0 0 1 -.91 2 1.53 1.53 0 0 1 -1.47.54 1.32 1.32 0 0 1 -1.16-1 2.78 2.78 0 0 1 .13-1.71 14.24 14.24 0 0 1 2.55-4.42z"/><path d="m821.25 242.59a1 1 0 0 1 -.22.82 6.83 6.83 0 0 0 -1.14 2.33 1.5 1.5 0 0 0 0 .84.64.64 0 0 0 1.06.3 8.67 8.67 0 0 0 .71-.64 6.09 6.09 0 0 1 -.72 1.58 1.08 1.08 0 0 1 -1.07.4 1 1 0 0 1 -.8-.84 2.4 2.4 0 0 1 .14-1.35 12 12 0 0 1 2.04-3.44z"/><path d="m799.31 222.89a.79.79 0 0 1 -.19.83 6.19 6.19 0 0 0 -1.14 2.39 1.29 1.29 0 0 0 .11.84.84.84 0 0 0 1.3.24c.29-.21.79-.68.79-.68a5.23 5.23 0 0 1 -.72 1.62 1.35 1.35 0 0 1 -1.24.46 1.12 1.12 0 0 1 -1-.79 2.11 2.11 0 0 1 .05-1.36 11.14 11.14 0 0 1 2.04-3.55z"/><path d="m880.66 252c.12.25 0 .4-.15.55a3.82 3.82 0 0 0 -.9 1.59.77.77 0 0 0 .1.56.76.76 0 0 0 1 .16 5.53 5.53 0 0 0 .63-.45 3.1 3.1 0 0 1 -.57 1.08 1.18 1.18 0 0 1 -1 .3.93.93 0 0 1 -.84-.54 1.13 1.13 0 0 1 0-.9 7 7 0 0 1 1.73-2.35z"/><path d="m870.21 246.4a.59.59 0 0 1 -.14.6 4.51 4.51 0 0 0 -.83 1.76.9.9 0 0 0 .08.62.61.61 0 0 0 .94.17 6.08 6.08 0 0 0 .58-.5 3.89 3.89 0 0 1 -.52 1.19 1 1 0 0 1 -.91.34.85.85 0 0 1 -.76-.58 1.49 1.49 0 0 1 0-1 8 8 0 0 1 1.56-2.6z"/><path d="m852.12 230.84c.22.4 0 .66-.2.92a6.21 6.21 0 0 0 -1.42 2.7 1.24 1.24 0 0 0 .21.92 1.33 1.33 0 0 0 1.79.2 11.26 11.26 0 0 0 1-.8 5.09 5.09 0 0 1 -.88 1.83 2.07 2.07 0 0 1 -1.67.57 1.55 1.55 0 0 1 -1.47-.82 1.83 1.83 0 0 1 0-1.5 11.68 11.68 0 0 1 2.64-4.02z"/><path d="m823.73 251.41c0-.35 0-.64 0-.93a33.19 33.19 0 0 0 .16-4c-.22-2.84-.6-5.67-.92-8.51-.29-2.53-.6-5.06-.88-7.59-.13-1.14-.17-2.29-.32-3.44a9.6 9.6 0 0 0 -.42-1.32c-.06-.21-.16-.45-.05-.65.35-.66.78-1.31 1.25-2.07a3.55 3.55 0 0 1 .52.4c1.06 1.66 2 3.65 3.07 5.32.12.19 0 .42.05.63-.63.06-1.54-1-1.92-1.17v.35c.57 4.66 1.15 9.31 1.7 14a13.8 13.8 0 0 1 -.06 5.28 9.48 9.48 0 0 1 -1.71 3.4 2.23 2.23 0 0 1 -.22.21 1 1 0 0 1 -.25.09z"/><path d="m815.83 242.94a2.42 2.42 0 0 1 -.42 1.49 8.12 8.12 0 0 0 -.9 2.7 3.19 3.19 0 0 0 1.69 3.13 12.83 12.83 0 0 0 6 1.78 37.66 37.66 0 0 0 10.61-.7 63 63 0 0 0 12.72-3.77c.84-.36.93-.71.26-1.27a4.64 4.64 0 0 0 -2.85-1c-.89 0-1.78 0-2.67 0-1.86 0-3-.89-3-2.34a4.78 4.78 0 0 1 2.3-3.93 3.35 3.35 0 0 1 3.38-.19 7.35 7.35 0 0 1 4.28 8.37c-.3 1.37-1.51 2.3-2.91 3a36.85 36.85 0 0 1 -6.83 2.42 55.71 55.71 0 0 1 -11.42 2.19 25.32 25.32 0 0 1 -5.9-.13c-4.27-.67-6.56-2.85-6.56-6.25a8.33 8.33 0 0 1 1.55-4.8 6.11 6.11 0 0 1 .51-.63.59.59 0 0 1 .16-.07zm27.62-.23a3.39 3.39 0 0 0 -1.58-1.26 3 3 0 0 0 -1.79-.18c-.3.07-.54.22-.58.48s.14.48.45.61a3 3 0 0 0 .53.15c.95.15 1.92.14 2.97.2z"/><path d="m852.35 228.91c-.22-.11-.18-.24-.21-.36a8.51 8.51 0 0 0 -1.89-3.07.5.5 0 0 0 -.68-.11 1 1 0 0 1 -.86 0 3.72 3.72 0 0 1 -.5-.2c-1-.45-1-.65-.4-1.29l.1-.11c.65-.74 1.08-.77 2.31-.2a4.18 4.18 0 0 1 2 2.15c.15.31.26.63.41 1 .42-.32.38-.68.53-1a7 7 0 0 1 1.09-2.21l.2-.21a1.87 1.87 0 0 1 2.11-.52c.88.36 1.2 1.23.65 1.73a.44.44 0 0 1 -.59.06l-.47-.29c-.57-.35-1-.32-1.34.12a6.33 6.33 0 0 0 -1.1 2.34 5.44 5.44 0 0 1 -.68 1.65 1.15 1.15 0 0 1 -.68.52z"/><path d="m788.77 232.21c-.22-.11-.18-.24-.21-.36a8.65 8.65 0 0 0 -1.89-3.07.5.5 0 0 0 -.69-.1c-.28.16-.57-2.36.65-1.78a4.09 4.09 0 0 1 2 2.15c.15.3.26.62.4 1 .43-.32.38-.68.53-1a7.25 7.25 0 0 1 1.1-2.21l.2-.21a1.87 1.87 0 0 1 2.11-.52c.88.37 1.2 1.24.65 1.74a.46.46 0 0 1 -.6.06l-.47-.29c-.57-.35-1-.33-1.34.11a6.47 6.47 0 0 0 -1.09 2.34 5.34 5.34 0 0 1 -.68 1.65 1.15 1.15 0 0 1 -.67.49z"/><path d="m837.34 228.41c-.46-.31-.87-.55-1.24-.83a2 2 0 0 1 -.73-2.43 4.56 4.56 0 0 1 2.51-2.67 1.2 1.2 0 0 1 1.83 1.07 6.88 6.88 0 0 1 -.47 3.25l.32.23c1.28.81 1.31.95.49 2.24l-.42.6c-.23-.2-.42-.39-.64-.55s-.42-.29-.7-.48c-3.06 4-7.43 5.76-12.08 7.09a2.66 2.66 0 0 1 .92-.78c2.18-1.28 4.36-2.55 6.52-3.86a18.54 18.54 0 0 0 3.69-2.88zm1-2.09c0-.36.05-.64 0-.91s0-.8-.41-1-.75 0-1.09.22-.43.5-.1.8a4.14 4.14 0 0 0 1.65.89z"/><path d="m784.44 256.07c-.33-.18-.33-.5-.39-.77a.53.53 0 0 0 -.44-.44q-4.93-1.4-6.06-5.91a23.06 23.06 0 0 0 -.81-2.61c-.06.3-.11.61-.19.91a8 8 0 0 1 -2.15 3.41 22.51 22.51 0 0 1 -7.78 5.53 11.38 11.38 0 0 1 -3.11.79 3 3 0 0 1 -3.51-2.48 11.26 11.26 0 0 1 1.46-7.91.6.6 0 0 1 .14-.21c.14.39.13.45-.1 1.1a16.57 16.57 0 0 0 -1 3.81v.2c-.16 2.09 1 3 3.29 2.68a11.49 11.49 0 0 0 3.56-1.08 21.83 21.83 0 0 0 8.23-6.76 2.12 2.12 0 0 0 .37-1.72 21 21 0 0 0 -1.77-5.18 47.14 47.14 0 0 0 -2.66-4.75 1.5 1.5 0 0 1 -.24-1c.08-.6.13-1.2.21-1.8 0-.15 0-.35.2-.46s.4.24.55.41a19.31 19.31 0 0 1 4 6.93c.94 2.55 1.55 5.19 2.38 7.77a11.79 11.79 0 0 0 1.28 2.83 6.41 6.41 0 0 0 2.63 2.21c.18-.24.05-.41 0-.57a8 8 0 0 1 -.43-3.46c.18-2.29 2.31-3.92 5-3.77a63.3 63.3 0 0 1 6.59.92 40.27 40.27 0 0 0 8.07.64c.41 0 .61.1.48.48-.2.64-.42 1.29-.63 1.93a.53.53 0 0 1 -.51.37 11.45 11.45 0 0 0 -5.1 1.79c-2.28 1.25-4.47 2.63-6.86 3.72a14.58 14.58 0 0 1 -4 1.32c-.26 0-.29.18-.34.34s-.05.59-.36.79zm11.11-8.31c-2.06-.42-4-.76-6-1a18.8 18.8 0 0 0 -3.9-.23 3.31 3.31 0 0 0 -2.54 1.47.71.71 0 0 0 -.16.77c.52 1 1 2 1.55 3.07a.44.44 0 0 0 .47.27 8 8 0 0 0 2.75-.58 62.55 62.55 0 0 0 6.88-3.23z"/><path d="m812.12 255h-1.79s.09-1.47 1.33-1.47a1.31 1.31 0 0 1 1.34 1.47s-.14 2.7-7.9 3.09c.04-.01 5.97-1.17 7.02-3.09z"/><path d="m584.58 110.51c-2.49 2.64-12.93 11.48-22 19a91.43 91.43 0 0 1 -48.81 21.06c-12.39 1.33-25.07-.07-32-8.72-8.51-10.56-8.06-21.26-3-31.77a22.38 22.38 0 0 0 11.72 9h.09a21.28 21.28 0 0 0 6.14.87c21 0 49.49-1.92 64.72-13.75a24.77 24.77 0 0 0 8.87-13s0-.08 0-.13c2.09-7.77 1.43-19.78-17.74-27.63-11.81-4.62-30.55-4.32-50.14 15a193.79 193.79 0 0 0 -15.2 16.56c-.67.85-1.33 1.69-2 2.54a4.37 4.37 0 0 1 -6.69.45c-3.89-4.31-8.4-15.77-8.4-15.77l-31.14 13.31a14.19 14.19 0 0 0 -3.26 1.86c-9.62 7.73.2 22.63.2 22.63a7.78 7.78 0 0 1 1.09 2.41 11.32 11.32 0 0 1 -5.17 12.62c-27.32 16.95-104.86 34.24-104.86 34.24s37.46 4.62 75.2-10.65c29.65-12 37.26-22.75 39.16-26.81.62-1.33 1.3-2.63 2-3.89 5.43-9.63-.55-17.1-.55-20.59 0-3.75 5.76-5.48 5.76-5.48l16.43-4.87c.67 6.83 6.05 9.87 8.26 10.85a1.45 1.45 0 0 1 .85 1.49 13.57 13.57 0 0 1 -2.56 6.26 15.86 15.86 0 0 0 -1.94 3.91c-6.65 18.94 5.26 37.75 25.09 40.9a69.78 69.78 0 0 0 21.3-.31c36-5.41 44.53-21 46.45-26.56a2.16 2.16 0 0 1 2.63-1.38c7.64 2.08 33.66 9 38.81 7.49 6.05-1.73 8.35-12.69 8.35-12.69-2.3-14.96-23.04-23.36-27.66-18.45zm-62.58-33.95c7.11-1.47 29.77-5.45 37.76 16.16 0 0 3.46 5.39-3 7.33s-41.94 18.15-69.15 1.73c-.05 0 20.57-22.36 34.39-25.22zm74.29 53.44a84.23 84.23 0 0 1 -20.23-3c1.76-2.72 7.83-4.71 12.67-4.19 5.39.59 8.51 2.65 10.2 5.5.64 1.13-.36 1.77-2.64 1.69z"/><path d="m377.99 43.37 14.69 12.1-10.37 11.53-14.12-11.82z"/><path d="m36.3 14.76 14.94 10.05-10.13 10.15-14.36-9.81z"/><path d="m9.55 14.76 14.94 10.05-10.13 10.15-14.36-9.81z"/><path d="m279.74 43.36.58-1.76a6.39 6.39 0 0 0 -.38-5l-13.75-26.66-6.95 11.54c13.43 81 8.82 81 8.82 81 .28 4-18.3 8.05-18.3 8.05-.57-5.78-6.62-12.4-6.62-12.4-10.37-8.93-22.77-5.48-30.25 7.78s8.64 18.16 8.64 18.16h22.18c4.91 22.47-108.33 51.29-108.33 51.29l42.07-3.36c72.9-19.81 73.47-50.2 73.47-50.2a31.62 31.62 0 0 0 21.08-12.75 27.4 27.4 0 0 0 4.82-19.48c-4.42-36.46-3.13-54.57-3.13-54.57zm-44.67 69.74s-13.25-1.16-13.25-5.48 16.43-1.16 13.25 5.48z"/><path d="m20.82 82.62c-5.19-5-10.1-9.71-15.07-14.4-1-1-2.32-1.81-3.41-2.76-.66-.57-1.53-1.21-1.64-1.88a16.13 16.13 0 0 1 2.06-10.9 137.63 137.63 0 0 1 19.24 9.39 56.26 56.26 0 0 1 -8 1 63 63 0 0 0 14.39 10.93c7.66-8.92 16.17-17.28 22.16-26.93.69 2.23 1.11 4.49.05 6.53a94.56 94.56 0 0 1 -7.09 11.71c-3 4.1-6.58 8-10 12.07l3.49 3.36c5.06 4.77 8.34 10 8.63 16.25.44 9.39-4.56 16.48-15.61 21a59.89 59.89 0 0 1 -10.41 3.32c-6.8 1.42-11.26-.88-12.44-6.09-1.12-4.93-.24-9.78 1.52-14.54 2.2-6 6.56-11.15 10.74-16.39.57-.63 1.06-1.29 1.39-1.67zm5.48 3.32c-6 5.82-11.25 11.75-14.46 18.55-1.47 3.1 0 4.77 4.48 5.12a16.12 16.12 0 0 0 4.34-.13 46.47 46.47 0 0 0 19.14-8.2c1-.73 1.79-1.46.84-2.69a53.31 53.31 0 0 0 -14.34-12.65z"/><path d="m19.74 145.21c.68-2 1.16-3.68 1.79-5.24a2.38 2.38 0 0 1 1.26-1.12q21-9 42.07-17.94a12.39 12.39 0 0 1 1.42-.45c.08 2.05-1.09 4.43-2.43 5l-43 19.27c-.2.14-.43.21-1.11.48z"/><path d="m178.19 83.22c1-2.38 1.65-4.3 2.59-6.13a3.78 3.78 0 0 1 2-1.38q34.14-11.94 68.33-23.8c.74-.26 1.52-.41 2.32-.62a6.13 6.13 0 0 1 -3.67 5.94l-69.7 25.39c-.37.13-.76.24-1.87.6z"/><path d="m467.89 63.1a81.65 81.65 0 0 1 4.29-7.22 7.33 7.33 0 0 1 3.39-1.75q58.32-16.46 116.7-32.83c1.26-.35 2.61-.59 4-.9.54 2.66-2.43 6-6.15 7.1l-119 34.76c-.68.19-1.34.34-3.23.84z"/><path d="m65.11 43.56c1.33-2.41 2.24-4.36 3.53-6.22a5.6 5.6 0 0 1 2.74-1.46q46.94-13.15 93.92-26.25c1-.28 2.1-.46 3.2-.7.39 2.34-2 5.21-5 6.08l-95.82 27.88c-.52.11-1.05.28-2.57.67z"/><path d="m135.38 84.51c9.77-5.52 31.79-14.28 31.79-14.28s-18.09-1.23-25.59-1.08a24.28 24.28 0 0 1 -6.2-.2c1.38-6.48 5.62-11.18 17.15-11.18 7.1 0 29.81 1.29 29.81 1.29a57.68 57.68 0 0 1 -26.77 22c-5.19 1.01-18.71 3.62-20.19 3.45z"/><path d="m477.72 30.91c9.76-5.52 36.94-13.12 36.94-13.12s-17.95-.19-25.45-.06a24.28 24.28 0 0 1 -6.2-.19c1.38-6.48 5.44-12.78 17-12.78h28.95a48.47 48.47 0 0 1 -25.15 22.9c-5.23 1.01-24.62 3.41-26.09 3.25z"/><path d="m116.06 41.89c.8 2.13 0 3.51-.71 4.88-2.36 4.61-4.5 9.26-5 14.3a9.26 9.26 0 0 0 .74 4.89c1.28 2.69 4.06 3.16 6.38 1a49 49 0 0 0 3.66-4.23s-1.26 7.07-3.1 9.67c-1.29 1.84-3 3.3-5.91 3.07a5.62 5.62 0 0 1 -5.24-4.32 14.24 14.24 0 0 1 -.11-8 70 70 0 0 1 9.29-21.26z"/><path d="m352.25 74.63c.64 2.62-.51 4.14-1.53 5.66-3.43 5.1-6.61 10.29-7.88 16.17a10.85 10.85 0 0 0 .19 5.87c1.13 3.35 4.34 4.3 7.38 2.07a58 58 0 0 0 4.92-4.46s-2.48 8.16-5 11c-1.78 2-4 3.47-7.41 2.79a6.64 6.64 0 0 1 -5.56-5.83 16.85 16.85 0 0 1 1-9.39c3.31-8.3 7.36-16.27 13.89-23.88z"/><path d="m455.19 137.78c.67 2.36-.46 3.7-1.46 5-3.37 4.52-6.47 9.12-7.66 14.36a8.74 8.74 0 0 0 .25 5.25c1.17 3 4.4 3.9 7.4 1.95a53.87 53.87 0 0 0 4.85-3.93s-2.37 7.27-4.86 9.74a7.62 7.62 0 0 1 -7.37 2.41 6.53 6.53 0 0 1 -5.63-5.29 13.59 13.59 0 0 1 .86-8.39c3.25-7.3 7.19-14.38 13.62-21.1z"/><path d="m597.23 38.83c.7 2.24-.33 3.56-1.23 4.88-3 4.42-5.85 8.92-6.83 14a8.41 8.41 0 0 0 .39 5c1.18 2.85 4.25 3.6 7 1.64a53.51 53.51 0 0 0 4.47-3.91s-2 7-4.32 9.47a7.2 7.2 0 0 1 -6.89 2.53 6.16 6.16 0 0 1 -5.45-4.89 13.13 13.13 0 0 1 .57-8.05 68.11 68.11 0 0 1 12.29-20.67z"/><path d="m294.7 102.46c.44 1.78-.34 2.81-1 3.84-2.33 3.46-4.48 7-5.34 11a7.38 7.38 0 0 0 .12 4c.77 2.27 2.95 2.91 5 1.41a39.74 39.74 0 0 0 3.34-3s-1.68 5.53-3.4 7.43a5 5 0 0 1 -5 1.89 4.49 4.49 0 0 1 -3.77-4 11.34 11.34 0 0 1 .66-6.36 56.52 56.52 0 0 1 9.39-16.21z"/><path d="m191.51 9.79c.68 1.75-.15 2.82-.89 3.89-2.46 3.59-4.7 7.23-5.36 11.26a6.21 6.21 0 0 0 .52 4c1.12 2.23 3.79 2.74 6.1 1.11a42.11 42.11 0 0 0 3.71-3.22s-1.5 5.62-3.38 7.62a6.35 6.35 0 0 1 -5.83 2.19 5.27 5.27 0 0 1 -4.87-3.72 9.69 9.69 0 0 1 .2-6.4 52.41 52.41 0 0 1 9.8-16.73z"/><path d="m574.16 146.71c.56 1.17-.1 1.88-.68 2.59-2 2.37-3.74 4.78-4.24 7.46a3.59 3.59 0 0 0 .44 2.65c.92 1.49 3.07 1.85 4.92.78a33.56 33.56 0 0 0 2.95-2.12s-1.16 3.73-2.66 5.05a5.58 5.58 0 0 1 -4.67 1.42c-2-.21-3.4-1.07-3.93-2.51a5.39 5.39 0 0 1 .11-4.26 33 33 0 0 1 7.76-11.06z"/><path d="m525 120.35a2.79 2.79 0 0 1 -.65 2.86c-1.8 2.64-3.44 5.31-3.92 8.26a4.68 4.68 0 0 0 .37 2.91c.83 1.63 2.77 2 4.46.81a31.48 31.48 0 0 0 2.71-2.36s-1.1 4.12-2.46 5.59a4.66 4.66 0 0 1 -4.26 1.61 3.85 3.85 0 0 1 -3.56-2.73 7.15 7.15 0 0 1 .15-4.7 38.29 38.29 0 0 1 7.16-12.25z"/><path d="m439.93 47.16c1 1.9 0 3.13-1 4.34-3.14 4.09-6 8.22-6.64 12.7a5.82 5.82 0 0 0 1 4.35c1.69 2.4 5.38 2.83 8.45.92a54.06 54.06 0 0 0 4.87-3.74s-1.69 6.28-4.13 8.58a9.74 9.74 0 0 1 -7.87 2.69c-3.48-.2-5.89-1.53-6.92-3.87a8.71 8.71 0 0 1 -.13-7.07 54.61 54.61 0 0 1 12.37-18.9z"/><path d="m306.37 143.93c0-1.66-.05-3 0-4.38.28-6.23 1.24-12.48.76-18.69-1.05-13.36-2.81-26.7-4.34-40-1.35-11.9-2.83-23.8-4.15-35.7-.6-5.39-.8-10.8-1.48-16.19-.26-2.08-1.4-4.13-2-6.21-.28-1-.72-2.13-.23-3 1.65-3.12 3.69-6.17 5.89-9.74a12.76 12.76 0 0 1 2.42 1.87c5 7.82 9.65 17.15 14.48 25 .55.9.16 2 .21 3-3 .25-7.24-4.55-9-5.49a14.58 14.58 0 0 0 0 1.62c2.68 21.9 5.43 43.8 8 65.71 1 8.28 1.93 16.57-.31 24.85a43.86 43.86 0 0 1 -8 16 7.87 7.87 0 0 1 -1 1 8.38 8.38 0 0 1 -1.25.35z"/><path d="m269.2 104.08c.4 2.61-.8 4.84-1.94 7a37.07 37.07 0 0 0 -4.26 12.74c-.68 6.07 2 10.83 7.93 14.69 8.18 5.36 17.87 7.5 28.14 8.41 16.91 1.5 33.52-.13 49.91-3.33 20.81-4.07 40.94-9.61 59.83-17.71 3.94-1.69 4.34-3.33 1.23-5.95-3.58-3-8.26-4.37-13.4-4.58-4.19-.17-8.4 0-12.59-.08-8.75-.07-14.06-4.16-14.1-11 0-7.44 3.95-13.5 10.79-18.46 4.93-3.56 10.51-3 15.91-.9 8.26 3.28 13.23 9 16.87 15.38 4.37 7.69 5.08 15.82 3.28 24-1.42 6.45-7.1 10.83-13.71 14.27-9.89 5.15-21.06 8.23-32.13 11.41-17.41 5-35.17 8.91-53.7 10.31a120.46 120.46 0 0 1 -27.76-.62c-20.08-3.14-30.84-13.39-30.83-29.41a39.15 39.15 0 0 1 7.33-22.58c.71-1 1.58-2 2.41-3a4.72 4.72 0 0 1 .79-.59zm129.94-1.08a16.06 16.06 0 0 0 -7.43-5.91 13.93 13.93 0 0 0 -8.41-.83c-1.44.31-2.54 1-2.73 2.23s.64 2.27 2.09 2.86a11 11 0 0 0 2.51.72c4.49.69 9.04.65 13.97.93z"/><path d="m441 38.09c-1-.52-.82-1.13-1-1.69-1.43-5.16-5-9.84-8.89-14.43a2.33 2.33 0 0 0 -3.21-.5 4.72 4.72 0 0 1 -4 .09 22.56 22.56 0 0 1 -2.35-.94c-4.5-2.14-4.78-3.08-1.87-6.09.16-.16.33-.32.48-.49 3.05-3.48 5.07-3.66 10.84-.94 5.3 2.5 7.72 6.27 9.58 10.11.7 1.45 1.22 2.92 1.9 4.55 2-1.52 1.78-3.23 2.49-4.75 1.61-3.49 2.16-7.18 5.13-10.41.31-.34.64-.66 1-1 3.12-3 6.56-3.85 9.92-2.45 4.12 1.72 5.65 5.82 3.05 8.17a2.13 2.13 0 0 1 -2.8.28l-2.27-1.35c-2.68-1.65-4.58-1.54-6.3.53-2.89 3.45-3.94 7.25-5.14 11-.85 2.63-1.43 5.3-3.23 7.78a5.31 5.31 0 0 1 -3.33 2.53z"/><path d="m141.91 53.62c-1-.52-.83-1.12-1-1.68-1.43-5.16-5-9.85-8.89-14.43a2.34 2.34 0 0 0 -3.22-.5c-1.32.74-2.7-11.09 3.06-8.37 5.31 2.5 7.73 6.26 9.58 10.11.7 1.44 1.23 2.92 1.9 4.54 2-1.51 1.78-3.22 2.49-4.75 1.62-3.49 2.16-7.17 5.14-10.41.31-.33.63-.66 1-1 3.12-3 6.56-3.85 9.92-2.45 4.12 1.71 5.65 5.81 3.05 8.16a2.11 2.11 0 0 1 -2.8.28c-.75-.44-1.48-.9-2.21-1.35-2.68-1.65-4.58-1.55-6.31.52-2.88 3.46-3.93 7.26-5.14 11-.84 2.64-1.43 5.31-3.22 7.79a5.33 5.33 0 0 1 -3.35 2.54z"/><path d="m370.39 35.74c-2.16-1.44-4.07-2.57-5.82-3.91-3.89-3-5-6.83-3.44-11.41a21.34 21.34 0 0 1 11.87-12.56c4.52-2.09 8 0 8.61 5 .68 5.24-.44 10.27-2.2 15.28.53.39 1 .77 1.47 1.08 6.05 3.83 6.2 4.48 2.31 10.54-.59.92-1.25 1.79-2 2.82-1.06-.93-2-1.81-3-2.59s-2-1.35-3.3-2.22c-14.4 18.69-34.96 27.12-56.89 33.38a12.48 12.48 0 0 1 4.36-3.68c10.23-6 20.5-12 30.64-18.15a87.41 87.41 0 0 0 17.39-13.58zm5-9.81c.08-1.73.21-3 .2-4.29 0-1.81-.09-3.75-2-4.68s-3.52.2-5.11 1c-1.93 1-2 2.37-.48 3.77a19.4 19.4 0 0 0 7.35 4.2z"/><path d="m121.57 165.87c-1.57-.84-1.54-2.36-1.85-3.62a2.48 2.48 0 0 0 -2.06-2.08q-23.2-6.54-28.51-27.81a110.37 110.37 0 0 0 -3.81-12.27c-.3 1.43-.54 2.88-.9 4.3-1.57 6.22-5.64 11.23-10.1 16a106 106 0 0 1 -36.58 26 51.28 51.28 0 0 1 -14.64 3.73c-8.18.87-14.64-3.54-16.35-11.63-2.75-13 .38-25.36 6.87-37.21a2.52 2.52 0 0 1 .67-1c.67 1.84.63 2.12-.46 5.17-2.12 5.88-4.23 11.76-4.91 17.92 0 .32-.09.64-.12 1-.78 9.79 4.6 14.13 15.48 12.57a54.19 54.19 0 0 0 16.73-5c15.7-7.94 28.97-18.21 38.71-31.89a10 10 0 0 0 1.73-8.05 98.83 98.83 0 0 0 -8.29-24.39 229.21 229.21 0 0 0 -12.52-22.38 6.73 6.73 0 0 1 -1.13-4.59c.35-2.82.6-5.64 1-8.45.11-.75-.07-1.67 1-2.2 1.3.15 1.86 1.16 2.58 1.92 9.12 9.55 14.69 20.81 19 32.63 4.38 12 7.27 24.39 11.16 36.52a58 58 0 0 0 6 13.36c2.91 4.61 7.29 7.74 12.37 10.35.83-1.1.22-1.9-.07-2.68a37.92 37.92 0 0 1 -2.06-16.25c.84-10.77 10.88-18.46 23.33-17.74 10.49.61 20.72 2.61 31 4.32 12.54 2.07 25.15 3.5 38 3 1.88-.07 2.83.48 2.26 2.25q-1.47 4.56-3 9.1a2.44 2.44 0 0 1 -2.38 1.73c-9 .4-16.45 4.26-23.88 8.34-10.73 5.88-21 12.38-32.27 17.49-5.94 2.7-11.95 5.28-18.59 6.2-1.22.17-1.36.84-1.6 1.64-.38 1.28-.38 2.75-1.81 3.7zm52.27-39.08c-9.72-2-19-3.61-28.31-4.85-6.08-.81-12.16-1.58-18.36-1.11a15.61 15.61 0 0 0 -11.94 6.91c-.77 1.06-1.49 2.27-.79 3.64 2.45 4.81 4.92 9.61 7.31 14.45a2 2 0 0 0 2.21 1.26 38.83 38.83 0 0 0 12.92-2.71c11.4-4 21.71-9.94 32.4-15.2 1.4-.69 2.72-1.45 4.56-2.39z"/><path d="m251.78 160.78h-8.42s.43-6.91 6.26-6.91c0 0 6.49-.43 6.49 6.91 0 0-.65 12.69-37.17 14.56 0 0 27.87-5.48 32.84-14.56z"/><path d="m20.45 258.09-14.39-60.25h12.46l9.08 41.38 11-41.38h14.48l10.56 42.08 9.25-42.08h12.24l-14.63 60.25h-12.9l-12-45-12 45z"/><path d="m144 258.09h-13.25l-5.26-13.69h-24.08l-5 13.69h-12.88l23.47-60.25h12.86zm-22.4-23.84-8.3-22.36-8.14 22.36z"/><path d="m153.44 258.09v-60.25h12.16v23.71h23.84v-23.71h12.16v60.25h-12.16v-26.35h-23.84v26.35z"/><path d="m217.1 197.84h22.23a43.3 43.3 0 0 1 11.47 1.16 20.13 20.13 0 0 1 9.08 5.55 26.27 26.27 0 0 1 5.75 9.76 44.29 44.29 0 0 1 2 14.24 39.66 39.66 0 0 1 -1.85 12.82 26.64 26.64 0 0 1 -6.47 10.63 21.32 21.32 0 0 1 -8.55 4.81 36.81 36.81 0 0 1 -10.76 1.28h-22.9zm12.16 10.16v39.91h9.09a33.23 33.23 0 0 0 7.35-.58 11.18 11.18 0 0 0 4.91-2.51 12.68 12.68 0 0 0 3.19-5.82 39.43 39.43 0 0 0 1.2-11 36 36 0 0 0 -1.23-10.72 13.75 13.75 0 0 0 -3.45-5.84 11.54 11.54 0 0 0 -5.63-2.83 54.45 54.45 0 0 0 -10-.58z"/><path d="m335.21 258.09h-13.21l-5.26-13.69h-24.1l-5 13.69h-12.9l23.46-60.25h12.87zm-22.4-23.84-8.3-22.36-8.13 22.36z"/><path d="m364.93 197.84h24.07a70.58 70.58 0 0 1 10.66.59 15.69 15.69 0 0 1 6.29 2.49 15.39 15.39 0 0 1 4.62 5 13.54 13.54 0 0 1 1.85 7 14.28 14.28 0 0 1 -8.42 13.15 15.82 15.82 0 0 1 8.46 5.47 14.45 14.45 0 0 1 3 9.08 17.81 17.81 0 0 1 -1.91 8 16.05 16.05 0 0 1 -5.22 6.21 17.22 17.22 0 0 1 -8.16 2.86q-3 .33-14.67.41h-20.5zm12.16 10v13.96h8q7.11 0 8.84-.21a8 8 0 0 0 4.91-2.16 6.36 6.36 0 0 0 1.79-4.7 6.64 6.64 0 0 0 -1.54-4.54 7 7 0 0 0 -4.59-2.12c-1.2-.14-4.67-.2-10.39-.2zm0 24v16.11h11.26a55.88 55.88 0 0 0 8.34-.37 7.53 7.53 0 0 0 4.42-2.41 7.38 7.38 0 0 0 1.71-5.11 7.86 7.86 0 0 0 -1.32-4.61 7.36 7.36 0 0 0 -3.8-2.75c-1.66-.58-5.25-.86-10.79-.86z"/><path d="m483 258.09h-13.28l-5.26-13.69h-24.08l-5 13.69h-12.88l23.5-60.25h12.86zm-22.4-23.84-8.3-22.36-8.14 22.36z"/><path d="m492.49 258.09v-60.25h11.84l24.67 40.23v-40.23h11.3v60.25h-12.22l-24.29-39.29v39.29z"/><path d="m556.27 258.09v-60.25h12.17v26.75l24.56-26.75h16.35l-22.66 23.46 23.91 36.79h-15.74l-16.56-28.28-9.86 10.07v18.21z"/></g></svg>