<?xml version="1.0" encoding="UTF-8"?>
<svg id="Layer_2" data-name="Layer 2" xmlns="http://www.w3.org/2000/svg" viewBox="0 0 464.32 85.56">
  <defs>
<style>
  .cls-1 {
    fill: #ffffff;
  }

  .cls-1, .cls-2, .cls-3, .cls-4 {
    stroke-width: 0px;
  }

  .cls-2 {
    fill: #ffffff;
  }

  .cls-2, .cls-3, .cls-4 {
    fill-rule: evenodd;
  }

  .cls-3 {
    fill: #ffffff;
  }

  .cls-4 {
    fill: #ffffff;
  }
</style>
  </defs>
  <g id="Layer_1-2" data-name="Layer 1">
    <g>
      <rect class="cls-1" x="141.29" y="6.1" width="6.22" height="28.01"/>
      <g>
        <path class="cls-1" d="M293.44,29.44h-1.71c-3.01,0-5.45-3.14-5.45-7s2.44-7,5.45-7,5.45,3.14,5.45,7v7h-3.73ZM263.51,29.44h-22.55v-14.01h20.83c3.01,0,5.45,3.14,5.45,7v7h-3.73ZM291.73,10.77c-6.45,0-11.67,5.23-11.67,11.67,0,2.63.87,5.05,2.34,7h-8.92v-7c0-6.45-5.23-11.67-11.67-11.67h-17.1l-3.73,3.73v-3.73h-6.22v18.68h-9.18V10.77h-6.22v21.01c0,3.87-2.44,7-5.45,7v4.67c5.65,0,10.36-4.01,11.44-9.34h38.19l3.73-3.73v3.73h26.19l3.73-3.73v3.73h6.22v-11.67c0-6.45-5.23-11.67-11.67-11.67"/>
        <path class="cls-1" d="M260.94,51.95c-6.45,0-11.67,5.23-11.67,11.67v17.18h5.6v-17.18c0-4.13,2.72-7.47,6.07-7.47s6.07,3.35,6.07,7.47v17.18h5.6v-17.18c0-6.45-5.23-11.67-11.67-11.67"/>
        <path class="cls-1" d="M235.79,69.36h-12.14v-5.74c0-4.13,2.72-7.47,6.07-7.47s6.07,3.35,6.07,7.47v5.74ZM229.72,51.95c-6.45,0-11.67,5.23-11.67,11.67v17.18h5.6v-10.6l3.36,3.36h8.78v7.23h5.6v-17.18c0-6.45-5.23-11.67-11.67-11.67"/>
        <path class="cls-1" d="M164.75,69.36h-12.14v-5.74c0-4.13,2.72-7.47,6.07-7.47s6.07,3.35,6.07,7.47v5.74ZM158.68,51.95c-6.45,0-11.67,5.23-11.67,11.67v17.18h5.6v-10.6l3.36,3.36h8.78v7.23h5.6v-17.18c0-6.45-5.23-11.67-11.67-11.67"/>
        <path class="cls-1" d="M66.7,69.36h-12.14v-5.74c0-4.13,2.72-7.47,6.07-7.47s6.07,3.35,6.07,7.47v5.74ZM60.63,51.95c-6.45,0-11.67,5.23-11.67,11.67v17.18h5.6v-10.6l3.36,3.36h8.78v7.23h5.6v-17.18c0-6.45-5.23-11.67-11.67-11.67"/>
        <path class="cls-1" d="M206.88,29.44h-5.45c-3.01,0-5.45-3.14-5.45-7s2.44-7,5.45-7,5.45,3.14,5.45,7v7ZM201.43,10.77c-6.45,0-11.67,5.23-11.67,11.67,0,2.63.87,5.05,2.34,7h-16.23c-3.01,0-5.45-3.14-5.45-7v-11.67h-6.22v11.67c0,6.45,5.23,11.67,11.67,11.67h27.28l3.73-3.73v3.73h6.22v-11.67c0-6.45-5.23-11.67-11.67-11.67"/>
        <path class="cls-1" d="M111.5,29.44h-1.71c-3.01,0-5.45-3.14-5.45-7s2.44-7,5.45-7,5.45,3.14,5.45,7v7h-3.73ZM109.79,38.78v4.67c5.65,0,10.36-4.01,11.44-9.34h4.53l3.73-3.73v3.73h6.23V6.1h-6.23v23.34h-8.03v-7c0-6.45-5.23-11.67-11.67-11.67s-11.67,5.23-11.67,11.67,5.23,11.67,11.67,11.67h1.71l3.73-3.73v1.4c0,3.87-2.44,7-5.45,7"/>
        <path class="cls-1" d="M11.67,15.44c3.01,0,5.45,3.14,5.45,7v7h-5.45c-3.01,0-5.45-3.14-5.45-7s2.44-7,5.45-7M11.67,34.11h1.71l3.73-3.73v3.73h6.22v-11.67c0-6.45-5.23-11.67-11.67-11.67S0,15.99,0,22.44s5.23,11.67,11.67,11.67"/>
        <path class="cls-1" d="M82.37,34.11l3.73-3.73v3.73h6.22v-11.67c0-6.45-5.23-11.67-11.67-11.67h-23.58v4.67h23.58c3.01,0,5.45,3.14,5.45,7v7h-35.52v-7c0-6.45-5.23-11.67-11.67-11.67h-7.51v4.67h7.51c3.01,0,5.45,3.14,5.45,7v7h-14.79v4.67h11.06l3.73-3.73v3.73h38.01Z"/>
      </g>
      <rect class="cls-1" x="3.11" y="1.43" width="17.12" height="4.67"/>
      <rect class="cls-1" x="198.32" y="1.43" width="6.22" height="4.67"/>
      <polygon class="cls-1" points="99.34 64.69 86.23 64.69 86.23 52.79 80.63 52.79 80.63 80.8 86.23 80.8 86.23 68.89 99.34 68.89 99.34 80.8 104.94 80.8 104.94 52.79 99.34 52.79 99.34 64.69"/>
      <g>
        <path class="cls-1" d="M134,69.13c0,4.13-2.72,7.47-6.07,7.47h0s-4.76,0-4.76,0h0s-3.36,0-3.36,0v-19.61h8.12c3.35,0,6.07,3.34,6.07,7.47v4.67ZM127.93,52.79h0s-13.72,0-13.72,0v28.01h5.6v-3.36l3.36,3.36h4.76c6.45,0,11.67-5.23,11.67-11.67v-4.67c0-6.45-5.23-11.67-11.67-11.67"/>
        <path class="cls-1" d="M35.48,70.75c0,3.7-2.37,6.69-5.29,6.69s-5.29-2.99-5.29-6.69v-17.96h-5.6v17.96c0,3.7-2.37,6.69-5.29,6.69s-5.29-2.99-5.29-6.69v-17.96H3.11v17.96c0,6.02,4.88,10.89,10.89,10.89,3.21,0,6.1-1.39,8.09-3.6,1.99,2.21,4.88,3.6,8.09,3.6,6.02,0,10.89-4.88,10.89-10.89v-17.96h-5.6v17.96Z"/>
        <path class="cls-1" d="M201,76.6h-8.38v-8.07h8.38c2.23,0,4.04,1.81,4.04,4.04s-1.81,4.04-4.04,4.04M200.3,56.99c2.02,0,3.66,1.64,3.66,3.66s-1.64,3.66-3.66,3.66h-7.67v-7.33h7.67ZM206.22,66.19c2.01-1.3,3.34-3.55,3.34-6.12,0-4.02-3.26-7.28-7.29-7.28h-15.25v28.01h5.6v-3.36l3.36,3.36h6.99c4.23,0,7.66-3.43,7.66-7.66,0-3.07-1.81-5.72-4.42-6.94"/>
        <path class="cls-1" d="M297.79,58.93c0,3.18-2.26,5.76-5.06,5.76h-6.19v-11.91h-5.6v28.01h5.6v-11.9h6.19c2.79,0,5.06,2.58,5.06,5.76v6.15h5.61v-5.85c0-3.43-1.78-6.43-4.47-8.15,2.69-1.72,4.47-4.73,4.47-8.15v-5.85h-5.61v6.15Z"/>
      </g>
      <g>
        <path class="cls-4" d="M430.19,16.05l-20.94,39.1,13.21,24.85c14.06-26.77,30.22-57.53,41.86-79.67h-15.63c-10.76,0-14.32,7.91-18.5,15.72"/>
        <path class="cls-3" d="M385.58,0h17.7c4.92,9.32,9.85,18.66,14.78,28.01l-11.65,21.68-11.97-23.26-11.96,23.05-11.67-21.47c4.93-9.35,9.86-18.69,14.78-28.01"/>
        <path class="cls-2" d="M370.34,85.55h8.52c9.21,0,12.2-4.98,15.57-12.54,3.37,7.17,6.25,12.49,15.4,12.54h9.6s-25.15-46.52-25.15-46.52l-11.59,22.24c-.49-.38-25.17-47.18-27.42-51.26-1.89-3.43-3.32-5.25-6.14-7.05-2.98-1.9-6.15-2.93-10.62-2.93-3.69,0-11.18-.14-14.44.04,1.87,3.32,3.84,7.31,5.65,10.73l38.71,73.16c.92,1.76.89,1.57,1.9,1.57"/>
      </g>
    </g>
  </g>
</svg>