<svg xmlns="http://www.w3.org/2000/svg" width="25.052" height="17.667" viewBox="0 0 25.052 17.667">
  <g id="Group_550" data-name="Group 550" transform="translate(-15.5 -59.761)">
    <path id="Line_4" data-name="Line 4" d="M23.052,1H0A1,1,0,0,1-1,0,1,1,0,0,1,0-1H23.052a1,1,0,0,1,1,1A1,1,0,0,1,23.052,1Z" transform="translate(16.5 60.761)" fill="#37373f"/>
    <path id="Line_5" data-name="Line 5" d="M23.052,1H0A1,1,0,0,1-1,0,1,1,0,0,1,0-1H23.052a1,1,0,0,1,1,1A1,1,0,0,1,23.052,1Z" transform="translate(16.5 68.594)" fill="#37373f"/>
    <path id="Line_6" data-name="Line 6" d="M23.052,1H0A1,1,0,0,1-1,0,1,1,0,0,1,0-1H23.052a1,1,0,0,1,1,1A1,1,0,0,1,23.052,1Z" transform="translate(16.5 76.427)" fill="#37373f"/>
  </g>
</svg>
